<svg xmlns="http://www.w3.org/2000/svg" xmlns:xlink="http://www.w3.org/1999/xlink" viewBox="0 0 496.3 578.52"><defs><style>.cls-1{isolation:isolate;}.cls-2{fill:url(#linear-gradient);}.cls-3{fill:url(#linear-gradient-2);}.cls-4{fill:url(#linear-gradient-3);}.cls-5{fill:url(#linear-gradient-4);}.cls-6{fill:url(#Tin_Radial_2);}.cls-7{fill:url(#radial-gradient);}.cls-8{fill:#b3b3b3;}.cls-9{fill:url(#linear-gradient-5);}.cls-10{fill:url(#Tin_Radial_2-2);}.cls-11{fill:url(#linear-gradient-6);}.cls-12{mix-blend-mode:multiply;fill:url(#linear-gradient-7);}.cls-13{fill:url(#linear-gradient-8);}.cls-14{fill:url(#linear-gradient-9);}.cls-15{fill:url(#linear-gradient-10);}.cls-16{fill:url(#radial-gradient-2);}.cls-17{fill:url(#linear-gradient-11);}.cls-18{fill:url(#linear-gradient-12);}.cls-19{fill:url(#New_Gradient_Swatch_1);}.cls-20{fill:url(#linear-gradient-13);}.cls-21{fill:url(#linear-gradient-14);}.cls-22{opacity:0.96;fill:url(#linear-gradient-15);}.cls-23{fill:url(#linear-gradient-16);}.cls-24{fill:url(#linear-gradient-17);}.cls-25,.cls-29{opacity:0.67;}.cls-25{mix-blend-mode:darken;fill:url(#linear-gradient-18);}.cls-26{fill:url(#radial-gradient-3);}.cls-27{fill:url(#radial-gradient-4);}.cls-28{fill:url(#radial-gradient-5);}.cls-29{fill:url(#radial-gradient-6);}.cls-30{opacity:0.25;fill:url(#radial-gradient-7);}.cls-31{fill:url(#radial-gradient-8);}.cls-32{fill:url(#radial-gradient-9);}.cls-33,.cls-34{opacity:0.57;}.cls-33{fill:url(#radial-gradient-10);}.cls-34{fill:url(#radial-gradient-11);}.cls-35{fill:url(#linear-gradient-19);}</style><linearGradient id="linear-gradient" x1="505.8" y1="145.37" x2="551.43" y2="145.37" gradientTransform="matrix(1.03, -0.01, 0.01, 1, -121.92, 57.06)" gradientUnits="userSpaceOnUse"><stop offset="0" stop-color="#00b6c2"/><stop offset="0.43" stop-color="#00739f"/><stop offset="0.81" stop-color="#013d84"/><stop offset="1" stop-color="#012879"/></linearGradient><linearGradient id="linear-gradient-2" x1="400.49" y1="1724.75" x2="445.49" y2="1724.75" gradientTransform="matrix(1, 0, 0, -1, 0, 2109.47)" gradientUnits="userSpaceOnUse"><stop offset="0" stop-color="#00b6c2"/><stop offset="0.51" stop-color="#015b93"/><stop offset="0.82" stop-color="#012879"/></linearGradient><linearGradient id="linear-gradient-3" x1="238.39" y1="55.84" x2="239.73" y2="55.84" gradientUnits="userSpaceOnUse"><stop offset="0" stop-color="#00b6c2"/><stop offset="0.32" stop-color="#0084a8"/><stop offset="0.78" stop-color="#014286"/><stop offset="1" stop-color="#012879"/></linearGradient><linearGradient id="linear-gradient-4" x1="234.78" y1="153.59" x2="267" y2="129.54" gradientTransform="matrix(1, 0, 0, 1, 0, 0)" xlink:href="#linear-gradient"/><radialGradient id="Tin_Radial_2" cx="316.21" cy="215.9" r="6.91" gradientUnits="userSpaceOnUse"><stop offset="0.01" stop-color="#c4c6c8"/><stop offset="0.3" stop-color="#bcbec0"/><stop offset="0.66" stop-color="#a7a9ac"/><stop offset="1" stop-color="#9b9da0"/></radialGradient><radialGradient id="radial-gradient" cx="235.76" cy="287.45" fx="198.1722101349037" r="236.97" gradientUnits="userSpaceOnUse"><stop offset="0" stop-color="#e5e2df"/><stop offset="0" stop-color="#ded9d6"/><stop offset="0.01" stop-color="#cfcbc8"/><stop offset="0.04" stop-color="#a8a5a4"/><stop offset="0.08" stop-color="#6a6a6a"/><stop offset="0.08" stop-color="#666"/><stop offset="0.15" stop-color="#6f6f6f"/><stop offset="0.26" stop-color="#878787"/><stop offset="0.41" stop-color="#aeafaf"/><stop offset="0.58" stop-color="#e4e5e5"/><stop offset="0.62" stop-color="#f3f4f4"/><stop offset="0.66" stop-color="#e1e1e2"/><stop offset="0.74" stop-color="#b3b0b3"/><stop offset="0.82" stop-color="#807b80"/><stop offset="0.84" stop-color="#7a757a"/><stop offset="1" stop-color="#4d4d4d"/></radialGradient><linearGradient id="linear-gradient-5" x1="238.39" y1="1585.63" x2="239.73" y2="1585.63" gradientTransform="matrix(1, 0, 0, -1, 0, 2109.47)" xlink:href="#linear-gradient-3"/><radialGradient id="Tin_Radial_2-2" cx="319.78" cy="1750.63" r="2.61" gradientTransform="matrix(1, 0, 0, -1, 0, 2109.47)" xlink:href="#Tin_Radial_2"/><linearGradient id="linear-gradient-6" x1="74.35" y1="38.44" x2="171.94" y2="250.75" gradientUnits="userSpaceOnUse"><stop offset="0.03" stop-color="#5dcbec"/><stop offset="0.97" stop-color="#012879"/></linearGradient><linearGradient id="linear-gradient-7" x1="74.35" y1="38.44" x2="171.94" y2="250.75" gradientUnits="userSpaceOnUse"><stop offset="0" stop-opacity="0"/><stop offset="1" stop-opacity="0.5"/></linearGradient><linearGradient id="linear-gradient-8" x1="127.06" y1="92.72" x2="71.92" y2="137.98" gradientUnits="userSpaceOnUse"><stop offset="0.17" stop-color="#012879"/><stop offset="0.22" stop-color="#063280"/><stop offset="0.32" stop-color="#154c92"/><stop offset="0.43" stop-color="#2d76b0"/><stop offset="0.57" stop-color="#4eb0d9"/><stop offset="0.63" stop-color="#5dcbec"/></linearGradient><linearGradient id="linear-gradient-9" x1="302.96" y1="245.88" x2="510.11" y2="163.15" gradientUnits="userSpaceOnUse"><stop offset="0.12" stop-color="#012879"/><stop offset="0.27" stop-color="#0e3f89"/><stop offset="0.57" stop-color="#2f79b2"/><stop offset="0.96" stop-color="#5dcbec"/></linearGradient><linearGradient id="linear-gradient-10" x1="213.21" y1="59.01" x2="268.33" y2="100.53" gradientUnits="userSpaceOnUse"><stop offset="0.17" stop-color="#012879"/><stop offset="0.23" stop-color="#06317f"/><stop offset="0.32" stop-color="#144990"/><stop offset="0.43" stop-color="#2a71ac"/><stop offset="0.56" stop-color="#49a7d3"/><stop offset="0.63" stop-color="#5dcbec"/></linearGradient><radialGradient id="radial-gradient-2" cx="231.1" cy="301.5" fx="-150.76797678869508" r="381.87" gradientUnits="userSpaceOnUse"><stop offset="0" stop-color="#00adef"/><stop offset="0.16" stop-color="#009bdf"/><stop offset="0.48" stop-color="#006cb5"/><stop offset="0.88" stop-color="#012879"/></radialGradient><linearGradient id="linear-gradient-11" x1="67.57" y1="1739.72" x2="151.07" y2="1595.08" gradientTransform="matrix(1, 0, 0, -1, 0, 2109.47)" gradientUnits="userSpaceOnUse"><stop offset="0.12" stop-color="#012879"/><stop offset="0.28" stop-color="#144a91"/><stop offset="0.62" stop-color="#3b8fc2"/><stop offset="0.87" stop-color="#54bae0"/><stop offset="1" stop-color="#5dcbec"/></linearGradient><linearGradient id="linear-gradient-12" x1="95.93" y1="1641.43" x2="133.04" y2="1641.43" xlink:href="#linear-gradient-2"/><linearGradient id="New_Gradient_Swatch_1" x1="314.61" y1="1729.3" x2="496.3" y2="1729.3" gradientTransform="matrix(1, 0, 0, -1, 0, 2109.47)" gradientUnits="userSpaceOnUse"><stop offset="0" stop-color="#012879"/><stop offset="0.19" stop-color="#013d84"/><stop offset="0.57" stop-color="#00739f"/><stop offset="1" stop-color="#00b6c2"/></linearGradient><linearGradient id="linear-gradient-13" x1="198.21" y1="1574.08" x2="259.33" y2="1574.08" gradientTransform="matrix(1, 0, 0, -1, 0, 2109.47)" gradientUnits="userSpaceOnUse"><stop offset="0.01" stop-color="#012879"/><stop offset="0.14" stop-color="#01317d"/><stop offset="0.34" stop-color="#014889"/><stop offset="0.6" stop-color="#016e9d"/><stop offset="0.9" stop-color="#00a2b8"/><stop offset="1" stop-color="#00b6c2"/></linearGradient><linearGradient id="linear-gradient-14" x1="217.12" y1="1600.12" x2="247.15" y2="1600.12" xlink:href="#linear-gradient-2"/><linearGradient id="linear-gradient-15" x1="-208.57" y1="869.05" x2="-123.18" y2="746.17" gradientTransform="matrix(0.89, 0.06, -0.06, -0.96, 557.58, 1299.97)" gradientUnits="userSpaceOnUse"><stop offset="0.29" stop-color="#fff" stop-opacity="0"/><stop offset="0.36" stop-color="#fff" stop-opacity="0.07"/><stop offset="0.5" stop-color="#fff" stop-opacity="0.24"/><stop offset="0.69" stop-color="#fff" stop-opacity="0.5"/></linearGradient><linearGradient id="linear-gradient-16" x1="228.53" y1="102.86" x2="229.46" y2="4.79" xlink:href="#linear-gradient-6"/><linearGradient id="linear-gradient-17" x1="221.21" y1="8.21" x2="236.34" y2="124.06" xlink:href="#linear-gradient-6"/><linearGradient id="linear-gradient-18" x1="184.43" y1="93.51" x2="299.99" y2="76.36" gradientUnits="userSpaceOnUse"><stop offset="0.38" stop-opacity="0"/><stop offset="0.68" stop-opacity="0.29"/><stop offset="0.73" stop-opacity="0.5"/></linearGradient><radialGradient id="radial-gradient-3" cx="143.7" cy="-675.84" r="325.72" gradientTransform="matrix(0.63, -0.93, 0.63, 0.45, 601.05, 743.89)" gradientUnits="userSpaceOnUse"><stop offset="0.44" stop-color="#fff" stop-opacity="0"/><stop offset="0.62" stop-color="#fff" stop-opacity="0.01"/><stop offset="0.68" stop-color="#fff" stop-opacity="0.03"/><stop offset="0.72" stop-color="#fff" stop-opacity="0.08"/><stop offset="0.76" stop-color="#fff" stop-opacity="0.15"/><stop offset="0.79" stop-color="#fff" stop-opacity="0.23"/><stop offset="0.82" stop-color="#fff" stop-opacity="0.34"/><stop offset="0.84" stop-color="#fff" stop-opacity="0.46"/><stop offset="0.85" stop-color="#fff" stop-opacity="0.5"/></radialGradient><radialGradient id="radial-gradient-4" cx="27.03" cy="389.22" r="0.29" gradientTransform="translate(-7.29 -262.97) rotate(-0.64) scale(1 1.68)" gradientUnits="userSpaceOnUse"><stop offset="0.31" stop-color="#fff" stop-opacity="0"/><stop offset="0.43" stop-color="#fff" stop-opacity="0.18"/><stop offset="0.71" stop-color="#fff" stop-opacity="0.63"/><stop offset="0.75" stop-color="#fff" stop-opacity="0.7"/></radialGradient><radialGradient id="radial-gradient-5" cx="27.03" cy="174.19" r="0.29" gradientTransform="translate(-3.26 -117.52) rotate(-0.64) scale(1 1.68)" xlink:href="#radial-gradient-4"/><radialGradient id="radial-gradient-6" cx="188.17" cy="283.24" fx="155.46765807213083" r="270.35" gradientUnits="userSpaceOnUse"><stop offset="0.22" stop-color="#00adef"/><stop offset="0.24" stop-color="#00adef" stop-opacity="0.97"/><stop offset="0.27" stop-color="#00adef" stop-opacity="0.9"/><stop offset="0.31" stop-color="#00adef" stop-opacity="0.79"/><stop offset="0.35" stop-color="#00adef" stop-opacity="0.62"/><stop offset="0.4" stop-color="#00adef" stop-opacity="0.41"/><stop offset="0.44" stop-color="#00adef" stop-opacity="0.16"/><stop offset="0.47" stop-color="#00adef" stop-opacity="0"/><stop offset="0.93" stop-color="#012879"/></radialGradient><radialGradient id="radial-gradient-7" cx="285.88" cy="294.36" fx="-95.98857131634213" r="381.87" gradientUnits="userSpaceOnUse"><stop offset="0" stop-color="#00adef"/><stop offset="0.12" stop-color="#00a6e9"/><stop offset="0.3" stop-color="#0093d8"/><stop offset="0.5" stop-color="#0073bb"/><stop offset="0.74" stop-color="#014794"/><stop offset="0.88" stop-color="#012879"/></radialGradient><radialGradient id="radial-gradient-8" cx="156.93" cy="427.11" fx="169.3755762089467" fy="287.01234981394543" r="140.65" gradientTransform="translate(0 1.43)" gradientUnits="userSpaceOnUse"><stop offset="0.36" stop-color="#fff" stop-opacity="0"/><stop offset="0.48" stop-color="#fff" stop-opacity="0.01"/><stop offset="0.56" stop-color="#fff" stop-opacity="0.04"/><stop offset="0.63" stop-color="#fff" stop-opacity="0.1"/><stop offset="0.69" stop-color="#fff" stop-opacity="0.18"/><stop offset="0.74" stop-color="#fff" stop-opacity="0.29"/><stop offset="0.75" stop-color="#fff" stop-opacity="0.3"/><stop offset="0.99" stop-color="#fff" stop-opacity="0.5"/></radialGradient><radialGradient id="radial-gradient-9" cx="156.93" cy="3356.2" fx="169.3743466314258" fy="3216.1085564250866" r="140.65" gradientTransform="matrix(1, 0, 0, -1, 0, 3503.93)" gradientUnits="userSpaceOnUse"><stop offset="0.36" stop-color="#fff" stop-opacity="0"/><stop offset="0.47" stop-color="#fff" stop-opacity="0.01"/><stop offset="0.54" stop-color="#fff" stop-opacity="0.04"/><stop offset="0.6" stop-color="#fff" stop-opacity="0.1"/><stop offset="0.66" stop-color="#fff" stop-opacity="0.18"/><stop offset="0.71" stop-color="#fff" stop-opacity="0.29"/><stop offset="0.75" stop-color="#fff" stop-opacity="0.4"/><stop offset="0.99" stop-color="#fff" stop-opacity="0.6"/></radialGradient><radialGradient id="radial-gradient-10" cx="243.41" cy="289.54" r="267.11" gradientUnits="userSpaceOnUse"><stop offset="0" stop-color="#00b6c2" stop-opacity="0.6"/><stop offset="0.18" stop-color="#00b6c2" stop-opacity="0.58"/><stop offset="0.37" stop-color="#00b6c2" stop-opacity="0.51"/><stop offset="0.56" stop-color="#00b6c2" stop-opacity="0.4"/><stop offset="0.75" stop-color="#00b6c2" stop-opacity="0.25"/><stop offset="0.95" stop-color="#00b6c2" stop-opacity="0.06"/><stop offset="1" stop-color="#00b6c2" stop-opacity="0"/></radialGradient><radialGradient id="radial-gradient-11" cx="244.6" cy="289.54" r="267.11" xlink:href="#radial-gradient-10"/><linearGradient id="linear-gradient-19" x1="-4.74" y1="293.04" x2="171.32" y2="293.04" gradientUnits="userSpaceOnUse"><stop offset="0.11" stop-color="#fff" stop-opacity="0.3"/><stop offset="0.12" stop-color="#fff" stop-opacity="0.29"/><stop offset="0.17" stop-color="#fff" stop-opacity="0.18"/><stop offset="0.23" stop-color="#fff" stop-opacity="0.1"/><stop offset="0.29" stop-color="#fff" stop-opacity="0.04"/><stop offset="0.37" stop-color="#fff" stop-opacity="0.01"/><stop offset="0.48" stop-color="#fff" stop-opacity="0"/></linearGradient></defs><title>mlogo-svg</title><g class="cls-1"><g id="Layer_1" data-name="Layer 1"><path class="cls-2" d="M439.53,196.66c-5.95,6.07-20.28,14.16-22,15.42h0l-.27.33a207.8,207.8,0,0,0-18.77-34.58h0l.37,0a174.84,174.84,0,0,1,21.52,0c8,.69,20.63,3.37,24.27,8C447.26,189.15,442.34,193.8,439.53,196.66Z"/><path class="cls-3" d="M439.73,382.67c-5.8-5.88-19.68-13.62-21.39-14.84h0l-.26-.32a205.69,205.69,0,0,1-17.58,34.23h0l.36,0a164.57,164.57,0,0,0,20.69-.31c7.65-.79,19.79-3.6,23.22-8.2C447.27,389.94,442.47,385.44,439.73,382.67Z"/><path class="cls-4" d="M239.73,56.26a7.36,7.36,0,0,0-1.35-.83A4.06,4.06,0,0,1,239.73,56.26Z"/><path class="cls-5" d="M256.57,115.55c-.13,1.49-.27,3-.43,4.57a.15.15,0,0,1,0,.07c-.37,3.19-.82,6.36-1.32,9.49v0a216.09,216.09,0,0,1-9.59,37.86l0-.29a216.53,216.53,0,0,0,9.48-37.57v0c.5-3.13,1-6.3,1.32-9.49a.15.15,0,0,0,0-.07Q256.35,117.85,256.57,115.55Z"/><path class="cls-6" d="M317.87,217.68q2,3.09,3.81,6.31C320.48,221.83,319.2,219.74,317.87,217.68Zm-5-7.11c-.7-.94-1.42-1.86-2.16-2.76.73.91,1.44,1.82,2.14,2.76s1.51,2,2.24,3C314.39,212.58,313.66,211.57,312.89,210.57Z"/><path class="cls-7" d="M432.51,287.07q-.05-3.77-.25-7.48a208.37,208.37,0,0,0-4-31.7,206.23,206.23,0,0,0-28.44-70.12,202.53,202.53,0,0,0-12.43-17.37q-5.22-6.54-10.93-12.61a201,201,0,0,0-96.84-57.38q-8.54-2.2-17.35-3.61c-1-.15-1.93-.31-2.89-.44-.23,0-.45-.07-.68-.11q-5.56-.8-11.19-1.29l-.38,0q-9.61-.8-19.46-.67-5.2.07-10.32.4h-.23q-9.59.64-18.91,2.18h0c-1.69.27-3.37.57-5,.89-.83.15-1.67.36-2.5.5A151.65,151.65,0,0,0,169.45,94a297.75,297.75,0,0,0-36.51,15.17c-14.15,7-27.49,15.23-36.46,23.71-4.45,4.19-7.82,8.47-9.71,12.69V211.1h0v223c1.87,4.23,5.24,8.48,9.68,12.67,8.91,8.43,22.14,16.58,36.18,23.58a299.74,299.74,0,0,0,36.55,15.24,153.2,153.2,0,0,0,21.48,5.86c.83.14,1.67.35,2.5.5,1.68.32,3.38.62,5.07.89a188,188,0,0,0,19,2.17q5.2.36,10.47.43,9.81.14,19.41-.67,5.88-.48,11.65-1.31h0q1.77-.25,3.54-.54a198.43,198.43,0,0,0,25.29-5.8,201.2,201.2,0,0,0,82.66-48.84,205.77,205.77,0,0,0,17.48-19.34,207.93,207.93,0,0,0,29.82-51.31,207.55,207.55,0,0,0,10.84-36.25,210.57,210.57,0,0,0,3.88-31.26c.13-2.47.21-5,.25-7.48,0-.92,0-1.85,0-2.76S432.53,288,432.51,287.07Zm-93.72,2.77c0,.55,0,1.1,0,1.64q0,2.23-.14,4.43C337.42,323.71,328,349,313,368.8c-16.33,21.65-39.25,36.75-65.19,41.39-1,.18-2,.35-3,.48a96.17,96.17,0,0,1-33.9-1.06c-.46-.08-.91-.19-1.35-.3a98.31,98.31,0,0,1-25.44-9.56V179.94l.24-.13a98.3,98.3,0,0,1,25.2-9.44c.44-.11.88-.21,1.35-.3A95.74,95.74,0,0,1,244.65,169c.35,0,.68.08,1,.14h0c.71.12,1.42.23,2.13.36,25.84,4.62,48.68,19.61,65,41.13a122.77,122.77,0,0,1,11,17.3c.45.88.91,1.76,1.35,2.66l0,.08c.27.54.52,1.07.77,1.61a133.08,133.08,0,0,1,12.67,51.48q.11,2.21.14,4.43c0,.46,0,.94,0,1.41Z"/><path class="cls-8" d="M338.78,287.59c0-1.48-.07-3-.14-4.42a132.51,132.51,0,0,0-12.49-50.9c-.25-.54-.5-1.07-.78-1.61l0-.08c-.44-.89-.9-1.77-1.35-2.66-.69-1.33-1.41-2.64-2.14-3.94-1.21-2.16-2.49-4.25-3.83-6.31-.9-1.37-1.82-2.73-2.77-4.06-.73-1-1.47-2-2.24-3s-1.43-1.86-2.17-2.76c-.5-.63-1-1.25-1.53-1.87l-1.57-1.83c-1-1.13-2-2.25-3-3.33q-2.21-2.32-4.5-4.49c-.5-.48-1-1-1.53-1.42s-1-.94-1.56-1.39-.85-.75-1.29-1.12c-.62-.54-1.26-1.06-1.89-1.57l-1.43-1.14c-.68-.54-1.38-1.07-2.07-1.58l-1.31-1c-1.31-.94-2.62-1.85-4-2.73-.43-.29-.86-.57-1.31-.85s-1.16-.74-1.75-1.1q-1.47-.89-2.95-1.71c-.2-.13-.41-.24-.61-.36-.63-.36-1.27-.7-1.92-1q-4.06-2.14-8.29-3.93l-1.54-.63c-.84-.32-1.69-.65-2.54-1l-1.71-.61-2.08-.7-2.1-.65-2.12-.6c-.72-.2-1.43-.38-2.14-.56s-1.43-.36-2.14-.51c-1.44-.33-2.89-.62-4.35-.88l-2.11-.35h-.08q-.49-.09-1-.14a97.23,97.23,0,0,0-33.87,1.07c-.46.08-.9.19-1.34.3a98.86,98.86,0,0,0-25.5,9.54V289.59h0V399.52a98.86,98.86,0,0,0,25.5,9.54c.44.11.89.21,1.34.3a97.23,97.23,0,0,0,33.87,1.07q1.58-.21,3.16-.5c1.46-.26,2.91-.55,4.35-.88.72-.15,1.44-.33,2.14-.51s1.43-.36,2.14-.56l2.12-.6,2.1-.65,2.08-.7,1.71-.61c.85-.31,1.7-.64,2.54-1l1.54-.63q4.22-1.79,8.29-3.93c.65-.33,1.28-.68,1.92-1,.2-.12.41-.23.61-.36q1.47-.82,2.95-1.71c.59-.36,1.17-.73,1.75-1.1s.87-.56,1.31-.85c1.34-.88,2.66-1.79,4-2.73l1.31-1c.69-.51,1.39-1,2.07-1.58l1.43-1.14c.63-.51,1.27-1,1.89-1.57.44-.37.86-.74,1.29-1.12s1-.92,1.56-1.39,1-.94,1.53-1.42q2.3-2.16,4.5-4.49c1-1.08,2-2.2,3-3.33l1.57-1.83c.51-.62,1-1.24,1.53-1.87.74-.91,1.46-1.82,2.17-2.76s1.51-2,2.24-3c.95-1.33,1.87-2.69,2.77-4.06,1.34-2.06,2.62-4.16,3.83-6.31A131.37,131.37,0,0,0,338.64,296c.07-1.46.12-2.94.14-4.42,0-.55,0-1.1,0-1.64v-.36h0v-.36C338.79,288.69,338.79,288.14,338.78,287.59Zm-8.34,2c0,1.13,0,2.23-.07,3.33,0,.83-.07,1.66-.12,2.48a128.11,128.11,0,0,1-1.81,15.85c-.14.8-.3,1.58-.46,2.36s-.35,1.64-.53,2.47a123.09,123.09,0,0,1-20,45.15c-14.63,20.39-35.2,34.93-58.49,39.08-2.66.48-5.35.83-8.08,1a96.09,96.09,0,0,1-25-1.32c-.41-.07-.8-.17-1.2-.26-8-1.79-15.63-3.73-22.79-7.6V289.6h0V187c7.16-3.87,14.79-5.81,22.79-7.6.4-.1.79-.19,1.2-.26a96.09,96.09,0,0,1,25-1.32c2.73.21,5.43.57,8.08,1,23.29,4.16,43.86,18.7,58.49,39.08a123.09,123.09,0,0,1,20,45.15c.18.82.36,1.63.53,2.47s.31,1.56.46,2.36a128.11,128.11,0,0,1,1.81,15.85c0,.82.1,1.64.12,2.48,0,1.11.07,2.2.07,3.33Z"/><path class="cls-9" d="M239.73,523.42a7.36,7.36,0,0,1-1.35.83A4.06,4.06,0,0,0,239.73,523.42Z"/><path class="cls-10" d="M317.87,362c1.33-2.06,2.61-4.16,3.81-6.31Q319.86,358.9,317.87,362Z"/><path class="cls-11" d="M140.06,245.09c.44.42.88.81,1.31,1.2l-.35-.06-1-.19-.14,0-.27-.06c-.71-.14-1.43-.29-2.13-.45q-.7-.14-1.39-.32l-1.23-.31c-.42-.11-.83-.21-1.24-.33l-1.25-.36c-.79-.23-1.55-.46-2.32-.71q-.59-.18-1.18-.39l-.67-.23-.23-.08c-.49-.17-1-.35-1.44-.52s-.77-.29-1.16-.44c-.57-.21-1.14-.45-1.7-.69l-.4-.17-.92-.4c-.6-.25-1.19-.52-1.77-.81-.29-.13-.57-.26-.85-.4s-.37-.18-.55-.27c-.58-.27-1.16-.57-1.74-.88a5.88,5.88,0,0,1-.54-.29c-.7-.37-1.39-.76-2.08-1.16s-1.64-1-2.44-1.46-1.6-1-2.38-1.54a92,92,0,0,1-22.7-21.89c-13.64-18.3-22.55-42.47-26.73-69.63-.14-.85-.27-1.69-.38-2.54-.17-1.08-.31-2.18-.45-3.27-.11-.69-.19-1.38-.26-2.08v0c-.15-1.25-.3-2.51-.43-3.77-.12-1-.23-2.06-.3-3.1s-.2-2.17-.29-3.26-.17-2.17-.23-3.25-.13-2.07-.18-3.11c0-.12,0-.25,0-.37,0-1-.1-2-.13-3,0-.39,0-.79,0-1.18q-.05-1.21-.07-2.43c0-1.07,0-2.16-.06-3.23s0-2.17,0-3.25v-.32a152.94,152.94,0,0,1,2-27.53c.2-1.3.4-2.6.63-3.89.1-.62.21-1.24.33-1.85s.25-1.42.39-2.11l.21-1.11c.19-.93.38-1.85.58-2.75.11-.5.21-1,.33-1.5q.79-3.41,1.69-6.74.21-.84.46-1.68T64.91,53q.32-1.11.68-2.21c.27-.89.56-1.77.86-2.66.11-.32.2-.64.32-1s.21-.64.33-1l.07-.23c.15-.46.33-1,.49-1.42,0,0,0,0,0,0A33.93,33.93,0,0,1,77,38.16a27.27,27.27,0,0,1,8.86-2.39h0a30.23,30.23,0,0,1,5.5,0h.06c.8,0,1.58.07,2.37.13a59.19,59.19,0,0,1,9.54,2.79c8.42,3.18,17.85,8.47,27.41,15.52,5,4.1,10.12,8.15,15,12.43l0,0a163.52,163.52,0,0,1,20,22.14c1.35,1.81,2.6,3.61,3.79,5.38A299,299,0,0,0,133.65,109l-.61.31c-1.93-2.12-4.91-5.29-5.76-6.17-.42-.43-.83-.83-1.25-1.24a83.75,83.75,0,0,0-13.14-11,18,18,0,0,0-2.37-1.21s0,0,0,0a8.85,8.85,0,0,0-3-.65h-.07A6.46,6.46,0,0,0,104,90.16a14.93,14.93,0,0,0-3.1,3,21.12,21.12,0,0,0-3.68,7.67c-.07.25-.14.5-.19.75A46.35,46.35,0,0,0,96,110.81V111q0,.93,0,1.79c0,3.76,0,6.91,0,6.91,0,.38,0,.76,0,1.17,0,.77,0,1.24,0,1.24,0,2.68.24,6.12.46,9.1l0,.37a2.12,2.12,0,0,0,0,.27v0c0,.38,0,.77,0,1.14a0,0,0,0,1,0,0h0a1.44,1.44,0,0,0,0,.23v.14c0,1.56.12,3.13.21,4.74,0,.55.06,1.1.11,1.64,0,.12,0,.24,0,.36.07,1.12.15,2.25.25,3.38,0,.3,0,.6.08.89.06.94.15,1.89.25,2.85.27,2.76.6,5.57,1,8.41a219.37,219.37,0,0,0,5.49,27.6c.42,1.55.85,3.07,1.29,4.56q1,3.38,2.07,6.55,1,2.91,2,5.62a110.39,110.39,0,0,0,6.7,14.59,59.84,59.84,0,0,0,6.28,9.65c.2.31.42.61.63.92.43.63.88,1.26,1.36,1.92l.73,1,1,1.33a144.08,144.08,0,0,0,11.71,13.34C138.47,243.58,139.28,244.35,140.06,245.09Z"/><path class="cls-12" d="M140.06,245.09c.44.42.88.81,1.31,1.2l-.35-.06-1-.19-.14,0-.27-.06c-.71-.14-1.43-.29-2.13-.45q-.7-.14-1.39-.32l-1.23-.31c-.42-.11-.83-.21-1.24-.33l-1.25-.36c-.79-.23-1.55-.46-2.32-.71q-.59-.18-1.18-.39l-.67-.23-.23-.08c-.49-.17-1-.35-1.44-.52s-.77-.29-1.16-.44c-.57-.21-1.14-.45-1.7-.69l-.4-.17-.92-.4c-.6-.25-1.19-.52-1.77-.81-.29-.13-.57-.26-.85-.4s-.37-.18-.55-.27c-.58-.27-1.16-.57-1.74-.88a5.88,5.88,0,0,1-.54-.29c-.7-.37-1.39-.76-2.08-1.16s-1.64-1-2.44-1.46-1.6-1-2.38-1.54a92,92,0,0,1-22.7-21.89c-13.64-18.3-22.55-42.47-26.73-69.63-.14-.85-.27-1.69-.38-2.54-.17-1.08-.31-2.18-.45-3.27-.11-.69-.19-1.38-.26-2.08v0c-.15-1.25-.3-2.51-.43-3.77-.12-1-.23-2.06-.3-3.1s-.2-2.17-.29-3.26-.17-2.17-.23-3.25-.13-2.07-.18-3.11c0-.12,0-.25,0-.37,0-1-.1-2-.13-3,0-.39,0-.79,0-1.18q-.05-1.21-.07-2.43c0-1.07,0-2.16-.06-3.23s0-2.17,0-3.25v-.32a152.94,152.94,0,0,1,2-27.53c.2-1.3.4-2.6.63-3.89.1-.62.21-1.24.33-1.85s.25-1.42.39-2.11l.21-1.11c.19-.93.38-1.85.58-2.75.11-.5.21-1,.33-1.5q.79-3.41,1.69-6.74.21-.84.46-1.68T64.91,53q.32-1.11.68-2.21c.27-.89.56-1.77.86-2.66.11-.32.2-.64.32-1s.21-.64.33-1l.07-.23c.15-.46.33-1,.49-1.42,0,0,0,0,0,0A33.93,33.93,0,0,1,77,38.16a27.27,27.27,0,0,1,8.86-2.39h0a30.23,30.23,0,0,1,5.5,0h.06c.8,0,1.58.07,2.37.13a59.19,59.19,0,0,1,9.54,2.79c8.42,3.18,17.85,8.47,27.41,15.52,5,4.1,10.12,8.15,15,12.43l0,0a163.52,163.52,0,0,1,20,22.14c1.35,1.81,2.6,3.61,3.79,5.38A299,299,0,0,0,133.65,109l-.61.31c-1.93-2.12-4.91-5.29-5.76-6.17-.42-.43-.83-.83-1.25-1.24a83.75,83.75,0,0,0-13.14-11,18,18,0,0,0-2.37-1.21s0,0,0,0a8.85,8.85,0,0,0-3-.65h-.07A6.46,6.46,0,0,0,104,90.16a14.93,14.93,0,0,0-3.1,3,21.12,21.12,0,0,0-3.68,7.67c-.07.25-.14.5-.19.75A46.35,46.35,0,0,0,96,110.81V111q0,.93,0,1.79c0,3.76,0,6.91,0,6.91,0,.38,0,.76,0,1.17,0,.77,0,1.24,0,1.24,0,2.68.24,6.12.46,9.1l0,.37a2.12,2.12,0,0,0,0,.27v0c0,.38,0,.77,0,1.14a0,0,0,0,1,0,0h0a1.44,1.44,0,0,0,0,.23v.14c0,1.56.12,3.13.21,4.74,0,.55.06,1.1.11,1.64,0,.12,0,.24,0,.36.07,1.12.15,2.25.25,3.38,0,.3,0,.6.08.89.06.94.15,1.89.25,2.85.27,2.76.6,5.57,1,8.41a219.37,219.37,0,0,0,5.49,27.6c.42,1.55.85,3.07,1.29,4.56q1,3.38,2.07,6.55,1,2.91,2,5.62a110.39,110.39,0,0,0,6.7,14.59,59.84,59.84,0,0,0,6.28,9.65c.2.31.42.61.63.92.43.63.88,1.26,1.36,1.92l.73,1,1,1.33a144.08,144.08,0,0,0,11.71,13.34C138.47,243.58,139.28,244.35,140.06,245.09Z"/><path class="cls-13" d="M133,109.32c-14.27,7.11-27.68,15.41-36.57,24a1.44,1.44,0,0,1,0-.23h0a0,0,0,0,0,0,0c0-.37,0-.76,0-1.14v0a2.12,2.12,0,0,1,0-.27l0-.37c-.23-3-.48-6.42-.46-9.1,0,0,0-.46,0-1.24,0-.4,0-.79,0-1.17,0,0,0-3.14,0-6.91q0-.86,0-1.79v-.21a46.35,46.35,0,0,1,1.07-9.21c0-.25.12-.5.19-.75a21.12,21.12,0,0,1,3.68-7.67,14.93,14.93,0,0,1,3.1-3A6.46,6.46,0,0,1,107.35,89h.07a8.85,8.85,0,0,1,3,.65s0,0,0,0a18,18,0,0,1,2.37,1.21,83.75,83.75,0,0,1,13.14,11c.42.4.83.81,1.25,1.24C128.13,104,131.11,107.2,133,109.32Z"/><path class="cls-14" d="M494.36,196.41a45.12,45.12,0,0,1-6.16,11.93c-11.86,16.68-35.71,30-60.32,39.72a206.18,206.18,0,0,0-10.56-35.62c-.06-.14-.11-.29-.17-.43l.26-.32h0c1.7-1.21,15.59-9,21.39-14.84,2.74-2.76,7.54-7.26,5.07-10.57-3.43-4.61-15.58-7.42-23.22-8.2a164.57,164.57,0,0,0-20.69-.31l-.36,0h-.19l-1.16.1c-.65,0-1.32.1-2,.17s-1.07.08-1.63.15-1.38.12-2.07.2l-2.35.27c-.57.07-1.13.13-1.7.23-1.93.25-3.87.54-5.8.86l-1.56.26-1.87.33-1.52.3c-.82.15-1.63.32-2.44.5s-1.35.27-2,.43c-1,.2-1.92.44-2.87.67s-2.11.52-3.16.8a3.48,3.48,0,0,0-.48.12l-3.27.91-.29.08c-1.11.32-2.23.65-3.32,1a0,0,0,0,0,0,0c-1.18.36-2.35.74-3.51,1.13l-.15.06c-1,.33-1.94.67-2.92,1-.31.11-.61.21-.92.35-.85.3-1.67.62-2.49.93-1.08.42-2.16.85-3.2,1.3-.54.2-1.06.43-1.58.67-2.32,1-4.61,2-6.85,3.14-1.3.63-2.58,1.29-3.85,2L334,196c-.71.37-1.42.76-2.11,1.14-.49.27-1,.54-1.44.82q-2.43,1.34-4.75,2.81c-.67.42-1.35.86-2,1.29s-1.35.86-2,1.31-1.32.89-2,1.36-1.31.9-1.94,1.38c-1,.73-2,1.46-3,2.24h0l-.19.13c.32-.4.67-.81,1-1.21.5-.61,1-1.2,1.56-1.8s1-1.19,1.58-1.77q1.84-2,3.81-4c.38-.4.77-.79,1.17-1.18.57-.56,1.14-1.12,1.73-1.67l.36-.35c1-1,2.1-2,3.18-2.92q2.79-2.52,5.75-4.87c.44-.37.88-.73,1.35-1.07.89-.71,1.81-1.42,2.74-2.11L341,184c.26-.2.52-.39.8-.57.83-.61,1.68-1.19,2.52-1.77l.14-.1c1-.69,2-1.38,3.07-2t0,0c1-.63,2-1.25,2.94-1.86l.25-.15c1-.6,1.93-1.18,2.91-1.75a4,4,0,0,1,.43-.25c.93-.55,1.87-1.08,2.82-1.62s1.71-1,2.58-1.41c.6-.33,1.2-.66,1.81-1s1.48-.77,2.23-1.14l1.38-.69,1.71-.83,1.43-.67q2.66-1.25,5.36-2.39c.52-.24,1-.45,1.57-.67.73-.31,1.45-.61,2.19-.89s1.29-.52,1.94-.76,1-.4,1.52-.58,1.24-.48,1.86-.69c.43-.17.85-.32,1.27-.46.68-.25,1.36-.5,2-.73.45-.17.93-.32,1.39-.48l.35-.12,1.38-.45q1.7-.55,3.39-1.07l.77-.24c.83-.25,1.67-.5,2.51-.73l1.46-.42c1.27-.36,2.55-.7,3.83-1,1.07-.29,2.16-.55,3.24-.8q1.93-.46,3.89-.89c1.08-.24,2.17-.46,3.25-.67q1.09-.23,2.18-.43l.75-.13c.82-.17,1.66-.31,2.5-.45,1.07-.19,2.16-.37,3.24-.54s2.25-.35,3.38-.5l1.21-.17c2.2-.29,4.43-.55,6.66-.77l.3,0q.93-.11,1.86-.18l2.23-.19,2.07-.15q.86-.07,1.71-.11c.6,0,1.2-.08,1.81-.11l3.39-.17c1.08,0,2.17-.07,3.25-.08l1.48,0,3.36,0,1.86,0c.38,0,.76,0,1.14,0,1.88.06,3.79.19,5.69.39.6.06,1.19.12,1.8.2s1.1.13,1.66.21a103.7,103.7,0,0,1,10.47,2l1.68.42.44.12q.86.21,1.71.46c.69.19,1.38.38,2.07.6s1.17.35,1.76.54c1.29.39,2.57.82,3.85,1.26-.14-.27-.3-.55-.45-.81l.25.37C496.56,171.17,498.26,184.63,494.36,196.41Z"/><path class="cls-15" d="M247.15,85c-6.37-.54-12.84-.76-19.36-.67-3.57,0-7.13.18-10.66.43a2.48,2.48,0,0,1,0-.26c.25-1.38.55-3.35.89-4.69C220.61,69.71,225.16,61,230,57a8.93,8.93,0,0,1,5-2.3,6.56,6.56,0,0,1,3.47.69,4.06,4.06,0,0,1,1.35.83c4.18,3.76,6,16.71,6.37,19.28.2,1.3.54,4.35.92,8.49C247.09,84.34,247.12,84.66,247.15,85Z"/><path class="cls-16" d="M483,424.19c1.29-.39,2.57-.82,3.85-1.26-.14.27-.3.55-.45.81a296,296,0,0,1-79.29,92h0q-2.13,1.64-4.29,3.24l-.23.17a308,308,0,0,1-141.39,57.2,0,0,0,0,1,0,0c-1.55.21-3.1.42-4.66.6l-.88.11c-3.69.45-7.41.82-11.15,1.13-1.43.12-2.87.23-4.3.32h-2.27l0,0a10.64,10.64,0,0,0,1.75-.14,12.49,12.49,0,0,0,6.85-3.73,20.84,20.84,0,0,0,2.91-3.7c8.11-12.74,11.1-40.39,9.55-74,0-1-.1-1.91-.15-2.87v-.1l0-.46h0a.09.09,0,0,0,0,0c0-.14,0-.3,0-.45s0-.07,0-.11,0-.37,0-.55,0-.4,0-.61c0-.4,0-.8-.06-1.2-.12-1.89-.24-3.77-.39-5.63,0-.67-.1-1.32-.14-2,0-.13,0-.26,0-.39v-.11l0-.49c-.15-1.89-.31-3.76-.48-5.62l-.07-1.41q-.09-1.3-.14-2.61a.58.58,0,0,1,0-.14,1446.92,1446.92,0,0,1,0-.21c0-.11,0-.21,0-.31-.12-1.68-.24-3.35-.39-5a.2.2,0,0,0,0-.08c0-.54-.08-1.06-.13-1.58s-.08-.81-.13-1.23c-.13-1.49-.27-3-.43-4.57a.15.15,0,0,0,0-.07c-.37-3.19-.82-6.36-1.32-9.49v0a216.07,216.07,0,0,0-9.59-37.86l.1.28a2.57,2.57,0,0,0-.1-.28c-.08-.24-.23-.49-.32-.73l-.08-.23c0-.08-.06-.17-.08-.24q-1.68-4.63-3.54-9.06c-11.44-27.23-28.26-48.8-48.72-60.4a74.26,74.26,0,0,0-7.74-3.85l-.37-.15-.24-.1a68.44,68.44,0,0,0-26.54-5.35,93.51,93.51,0,0,0-13.1.89c-.32,0-.64.08-1,.14s-.61.1-.92.14l-1.23.2L141,333l-1,.19-.14,0-.27.06c-.71.14-1.43.29-2.13.45q-.7.14-1.39.32l-1.23.31c-.42.11-.83.21-1.24.33l-1.25.36c-.79.23-1.55.46-2.32.71q-.59.18-1.18.39l-.67.23-.23.08c-.49.17-1,.35-1.44.52s-.77.29-1.16.44c-.57.21-1.14.45-1.7.69l-.4.17-.92.4c-.6.25-1.19.52-1.77.81-.29.13-.57.26-.85.4s-.37.18-.55.27c-.58.27-1.16.57-1.74.88a5.83,5.83,0,0,0-.54.29c-.7.37-1.39.76-2.08,1.16s-1.64,1-2.44,1.46-1.6,1-2.38,1.54c-1.08.71-2.14,1.46-3.19,2.24-.58.43-1.14.86-1.7,1.29-1.06.82-2.1,1.67-3.12,2.55-.33.27-.67.56-1,.86a90.18,90.18,0,0,0-7.3,7.18c-.45.49-.89,1-1.32,1.49s-.88,1-1.31,1.52c-1.29,1.54-2.55,3.13-3.76,4.76l-.54.73h0l-1,1.43c-.39.55-.77,1.11-1.16,1.67s-.67,1-1,1.46-.81,1.21-1.19,1.83-.77,1.24-1.14,1.86-.74,1.21-1.08,1.82a1.73,1.73,0,0,0-.1.15c-.74,1.25-1.44,2.52-2.12,3.81s-1.39,2.66-2.06,4c-.49,1-1,2-1.43,3-.1.19-.18.39-.26.58-.33.7-.64,1.42-1,2.13-.19.42-.37.83-.55,1.25-.66,1.54-1.29,3.08-1.89,4.66-.32.83-.64,1.67-1,2.51l-.32.85c-.33.94-.67,1.88-1,2.83a.67.67,0,0,0,0,.14c-.18.49-.35,1-.5,1.48-1.12,3.36-2.14,6.81-3.06,10.32-.15.58-.31,1.16-.45,1.74s-.27,1.06-.4,1.6c-.27,1.12-.54,2.25-.8,3.38s-.5,2.27-.74,3.42l-.32,1.52c-.26,1.3-.5,2.6-.74,3.91-.11.54-.2,1.07-.29,1.62l-.07.42q-.3,1.73-.57,3.5c-.14.85-.27,1.69-.38,2.54-.17,1.08-.31,2.18-.45,3.27-.11.69-.19,1.38-.26,2.08v0c-.15,1.25-.3,2.51-.43,3.77-.12,1-.23,2.06-.3,3.1s-.2,2.17-.29,3.26-.17,2.17-.23,3.25-.13,2.07-.18,3.11c0,.12,0,.25,0,.37,0,1-.1,2-.13,3,0,.39,0,.79,0,1.18q-.05,1.21-.07,2.43c0,1.07,0,2.16-.06,3.23s0,2.17,0,3.25v.32a152.94,152.94,0,0,0,2,27.53c.2,1.3.4,2.6.63,3.89.1.62.21,1.24.33,1.85s.25,1.42.39,2.11l.21,1.11c.19.93.38,1.85.58,2.75.11.5.21,1,.33,1.5q.79,3.41,1.69,6.74.21.84.46,1.68t.54,1.86q.32,1.11.68,2.22c.27.89.56,1.77.86,2.66.11.32.2.64.32,1s.21.64.33,1l.07.23c.15.46.33,1,.49,1.42,0,0,0,0,0,0s0,0,0,0c-1.85-1.1-3.38-2.23-4.67-3.17-3.85-2.83-7.57-5.73-11.23-8.69C37.25,511.06,24,498.58,10.06,486.3q-3.91-3.48-7.92-6.91A5.79,5.79,0,0,1,0,475.12a18.9,18.9,0,0,1,.2-3.36c1.87-16.7,4.12-33.34,5.7-50.06q1.54-16.24,2.7-32.51.66-9.2,1.2-18.4,1.34-22.83,1.94-45.71.45-17.74.51-35.48t-.51-35.49q-.59-22.86-1.94-45.72Q9.3,199.2,8.63,190q-1.18-16.26-2.7-32.49c-1.58-16.72-3.83-33.37-5.7-50.06a18.9,18.9,0,0,1-.2-3.36,5.79,5.79,0,0,1,2.12-4.28q4-3.43,7.92-6.91C24,80.62,37.25,68.14,51.79,56.41c3.66-3,7.38-5.86,11.23-8.69,1.29-.94,2.82-2.07,4.67-3.17,0,0,0,0,0,0s0,0,0,0c-.15.46-.33,1-.49,1.42l-.07.23c-.12.32-.23.64-.33,1s-.21.63-.32,1c-.3.88-.58,1.76-.86,2.66q-.36,1.11-.68,2.21-.29.91-.54,1.86t-.46,1.68Q63,59.9,62.22,63.32c-.12.5-.23,1-.33,1.5-.2.91-.39,1.82-.58,2.75l-.21,1.11q-.21,1-.39,2.11c-.12.61-.24,1.23-.33,1.85-.23,1.3-.43,2.6-.63,3.89a152.94,152.94,0,0,0-2,27.53v.32c0,1.08,0,2.17,0,3.25s0,2.16.06,3.23q0,1.21.07,2.43c0,.39,0,.79,0,1.18,0,1,.08,2,.13,3,0,.12,0,.25,0,.37q.07,1.55.18,3.11c.06,1.08.13,2.17.23,3.25s.18,2.18.29,3.26.18,2.07.3,3.1c.13,1.26.27,2.52.43,3.78v0c.07.7.15,1.39.26,2.08.14,1.1.29,2.19.45,3.27.11.85.24,1.69.38,2.54q.27,1.77.57,3.5l.07.42c.15.91.31,1.8.48,2.69,0,.08,0,.17,0,.25.07.36.13.71.2,1.07,0,.17.06.32.1.49.18.89.36,1.8.55,2.68.25,1.21.51,2.42.79,3.62,0,.07,0,.15,0,.23.23,1,.45,1.88.68,2.82.13.54.26,1.06.4,1.6.06.3.14.6.23.89.15.63.32,1.25.5,1.88.2.79.43,1.57.66,2.36s.38,1.37.6,2c.07.25.14.5.23.74q.27.93.57,1.86c.24.77.48,1.52.74,2.29.13.42.27.82.42,1.24.23.69.46,1.38.73,2.07.13.39.27.79.42,1.18.25.73.52,1.45.81,2.17.12.33.25.67.38,1,.24.62.48,1.25.73,1.86l.17.42c.57,1.42,1.17,2.82,1.79,4.2.26.62.55,1.24.83,1.85s.42.93.64,1.38c.31.69.64,1.37,1,2s.65,1.35,1,2,.68,1.33,1,2c.68,1.29,1.38,2.56,2.12,3.81a.36.36,0,0,0,.08.12l.2.36c.29.5.57,1,.89,1.49s.75,1.25,1.14,1.87.77,1.23,1.19,1.83.63,1,1,1.46l.1.13q.18.29.39.57c.54.81,1.11,1.61,1.7,2.39h0c.17.24.35.49.54.73a1.15,1.15,0,0,0,.15.2c.26.37.55.74.83,1.11.51.68,1,1.33,1.56,2s1,1.26,1.55,1.87l.08.1.7.82.19.21q.75.88,1.54,1.71l.88.94c.3.32.58.63.89.93.91,1,1.85,1.87,2.79,2.77.54.51,1.08,1,1.63,1.51l.63.56c.67.6,1.33,1.17,2,1.73s1.56,1.29,2.36,1.91,1.39,1.07,2.11,1.58l.58.42c.73.52,1.46,1,2.2,1.52s1.58,1,2.38,1.54,1.62,1,2.44,1.46,1.38.79,2.08,1.16a5.85,5.85,0,0,0,.54.29c.58.31,1.16.61,1.74.88.18.1.36.19.55.27s.56.27.85.4c.58.29,1.18.56,1.77.81l.92.4.4.17c.56.24,1.13.48,1.7.69.38.15.77.31,1.16.44s1,.36,1.44.52l.23.08.67.23q.59.21,1.18.39c.77.25,1.54.49,2.32.71l1.25.36c.4.12.82.23,1.24.33l1.23.31q.7.18,1.39.32c.7.17,1.42.31,2.13.45l.27.06.14,0,1,.19.35.06,1.23.2c.31,0,.61.11.92.14s.64.1,1,.14a93.51,93.51,0,0,0,13.1.89,68.44,68.44,0,0,0,26.54-5.35l.24-.1.37-.15a74.26,74.26,0,0,0,7.74-3.85c20.46-11.6,37.27-33.17,48.72-60.4,1.21-2.88,2.36-5.82,3.45-8.84,0-.07.06-.14.08-.23s.11-.31.17-.46.18-.49.26-.73a2.67,2.67,0,0,0,.1-.29l0,.29c.38-1.06.74-2.13,1.11-3.2a.11.11,0,0,0,0-.06l1.14-3.49c1-3,1.86-6.13,2.69-9.26.36-1.36.7-2.72,1-4.08s.68-2.82,1-4.25l0-.17c.32-1.43.62-2.86.92-4.3l0-.18q.39-1.93.75-3.89c.06-.3.11-.6.15-.91.25-1.35.49-2.7.7-4.06v0c.5-3.13,1-6.3,1.32-9.49a.15.15,0,0,0,0-.07c.15-1.52.3-3.08.43-4.57,0-.42.1-.82.13-1.23s.1-1,.13-1.58a.2.2,0,0,0,0-.08c.15-1.66.27-3.32.39-5,0-.1,0-.2,0-.31a1052961.8,1052961.8,0,0,0,0-.21.58.58,0,0,1,0-.14q.05-1.3.14-2.61l.07-1.41c.17-1.86.32-3.73.48-5.62l0-.49v-.11c0-.13,0-.26,0-.39,0-.65.11-1.31.14-2,.15-1.86.27-3.74.39-5.63,0-.4,0-.8.06-1.2,0-.2,0-.4,0-.61s0-.37,0-.55,0-.07,0-.11v0c0-.32,0-.64.06-1v-.1c.06-1,.11-1.92.15-2.87,1.55-33.61-1.44-61.26-9.55-74a20.85,20.85,0,0,0-2.91-3.7A12.49,12.49,0,0,0,239.63.91a10.63,10.63,0,0,0-1.75-.14l0,0h.61a.05.05,0,0,1,.06,0h1.61c1.43.1,2.87.2,4.3.32,3.74.31,7.45.68,11.15,1.13l.88.11c1.56.18,3.11.38,4.66.6a0,0,0,0,1,0,0,308,308,0,0,1,141.39,57.2l.23.17q2.16,1.59,4.29,3.24h0a296,296,0,0,1,79.29,92c.15.26.31.54.45.81-1.27-.44-2.56-.87-3.85-1.26-.6-.19-1.18-.37-1.76-.54s-1.38-.4-2.07-.6-1.14-.32-1.71-.46l-.44-.12-1.68-.42a103.65,103.65,0,0,0-10.47-2c-.56-.08-1.11-.15-1.66-.21s-1.2-.14-1.8-.2c-1.91-.2-3.81-.33-5.69-.39-.38,0-.76,0-1.14,0l-1.86,0-3.36,0-1.48,0c-1.08,0-2.17,0-3.25.08l-3.39.17c-.61,0-1.21.06-1.81.11s-1.14.06-1.71.11l-2.07.15-2.23.19q-.93.07-1.86.18l-.3,0c-2.23.23-4.45.49-6.66.77l-1.21.17c-1.13.15-2.26.32-3.38.5s-2.17.35-3.24.54c-.85.14-1.68.29-2.5.45l-.75.13q-1.09.2-2.18.43c-1.08.2-2.17.43-3.25.67q-2,.43-3.89.89c-1.08.25-2.17.51-3.24.8-1.29.32-2.56.67-3.83,1l-1.46.42c-.85.23-1.68.48-2.51.73l-.77.24q-1.7.52-3.39,1.07l-.19.06-1.19.39-.14,0-.2.07c-.46.15-.94.31-1.39.48-.69.23-1.37.48-2,.73-.43.14-.85.3-1.27.46-.62.21-1.24.44-1.86.69s-1,.37-1.52.58-1.3.49-1.94.76-1.46.58-2.19.89c-.52.21-1,.43-1.57.67q-2.7,1.14-5.36,2.39l-1.43.67-1.71.83-1.38.69c-.75.37-1.49.75-2.23,1.14s-1.21.62-1.81,1c-.87.45-1.73.93-2.58,1.41s-1.89,1.07-2.82,1.62a4,4,0,0,0-.43.25c-1,.57-1.94,1.16-2.91,1.75l-.25.15c-1,.61-2,1.23-2.94,1.86t0,0c-1,.65-2.06,1.35-3.07,2l-.14.1c-.85.58-1.69,1.17-2.52,1.77-.27.18-.54.37-.8.57l-2.14,1.57c-.93.69-1.85,1.39-2.74,2.11-.46.35-.91.7-1.35,1.07q-3,2.36-5.75,4.87c-1.08,1-2.14,1.93-3.18,2.92l-.36.35c-.58.55-1.16,1.11-1.73,1.67-.39.39-.79.77-1.17,1.18q-2,1.95-3.81,4c-.54.58-1.07,1.18-1.58,1.77s-1.06,1.19-1.56,1.8c-.35.4-.69.81-1,1.21-.19.2-.36.4-.52.62l-.56.68c-.21.26-.43.52-.63.8h0l0,.06c-.08.1-.15.2-.24.31-.8,1-1.56,2-2.3,3q-.54.68-1,1.39c-.63.87-1.26,1.75-1.87,2.64-1.2,1.73-2.35,3.49-3.45,5.29-.37.6-.74,1.19-1.1,1.8s-.71,1.21-1.06,1.82-.7,1.21-1,1.83c-.69,1.23-1.35,2.48-2,3.73h0c-.33.63-.64,1.26-.94,1.89s-.62,1.26-.92,1.91-.6,1.29-.88,1.93-.57,1.3-.85,2c-.21.49-.42,1-.62,1.48q-1.73,4.18-3.14,8.54c-.23.68-.44,1.37-.65,2.06s-.42,1.38-.62,2.07q-.84,2.89-1.54,5.86c-.14.55-.26,1.1-.38,1.66q-.27,1.16-.5,2.32c-.1.45-.19.91-.27,1.37-.36,1.86-.68,3.74-1,5.63-.1.63-.18,1.26-.26,1.91s-.17,1.27-.24,1.92-.13,1.14-.19,1.71c0,.18,0,.36,0,.54-.06.54-.12,1.07-.15,1.61s-.12,1.3-.15,2c-.1,1.31-.17,2.62-.23,3.94,0,.65-.06,1.32-.07,2,0,.49,0,1,0,1.49s0,1,0,1.44,0,.94,0,1.43,0,1,0,1.49c0,.67,0,1.33.07,2,.06,1.32.13,2.63.23,3.94,0,.65.1,1.31.15,2s.1,1.07.15,1.61c0,.18,0,.36,0,.54.06.57.12,1.14.19,1.71s.14,1.29.24,1.92.17,1.27.26,1.91c.27,1.89.6,3.78,1,5.63.08.46.18.92.27,1.37q.23,1.16.5,2.32c.12.56.24,1.11.38,1.66q.7,3,1.54,5.86c.2.69.4,1.38.62,2.07s.43,1.38.65,2.06q1.41,4.36,3.14,8.54c.2.5.4,1,.62,1.48.27.65.55,1.3.85,2s.58,1.29.88,1.93.6,1.27.92,1.91.61,1.26.94,1.89h0c.63,1.25,1.29,2.5,2,3.73.33.62.68,1.23,1,1.83s.69,1.21,1.06,1.82.73,1.2,1.1,1.8q1.64,2.7,3.45,5.29c.61.89,1.24,1.77,1.87,2.64q.5.71,1,1.39c.74,1,1.5,2,2.3,3,.1.12.19.25.3.37a.58.58,0,0,0,.13.17.08.08,0,0,0,0,.06h0c.14.19.3.38.45.56l.56.68c.17.21.33.42.52.62.32.4.67.81,1,1.21.5.61,1,1.2,1.56,1.8s1,1.19,1.58,1.77q1.84,2,3.81,4c.38.4.77.79,1.17,1.18.57.56,1.14,1.12,1.73,1.67l.36.35c1,1,2.1,2,3.18,2.92q2.79,2.52,5.75,4.87c.44.37.88.73,1.35,1.07.89.71,1.81,1.42,2.74,2.11l2.14,1.57c.26.2.52.39.8.57.83.61,1.68,1.19,2.52,1.77l.14.1c1,.69,2,1.38,3.07,2t0,0c1,.63,2,1.25,2.94,1.86l.25.15c1,.6,1.93,1.18,2.91,1.75a4,4,0,0,0,.43.25c.93.55,1.87,1.08,2.82,1.62s1.71,1,2.58,1.41c.6.33,1.2.66,1.81,1s1.48.77,2.23,1.14l1.38.69,1.71.83,1.43.67q2.66,1.25,5.36,2.39c.52.24,1,.45,1.57.67.73.31,1.45.61,2.19.89s1.29.52,1.94.76,1,.4,1.52.58,1.24.48,1.86.69c.43.17.85.32,1.27.46.68.25,1.36.5,2,.73.45.17.93.32,1.39.48l.35.12.17.06,1.21.39q1.7.55,3.39,1.07l.77.24c.83.25,1.67.5,2.51.73l1.46.42c1.27.36,2.55.7,3.83,1,1.07.29,2.16.55,3.24.8q1.93.46,3.89.89c1.08.24,2.17.46,3.25.67q1.09.23,2.18.43l.75.13c.82.17,1.66.31,2.5.45,1.07.19,2.16.37,3.24.54s2.25.35,3.38.5l1.21.17c2.2.29,4.43.55,6.66.77l.3,0q.93.11,1.86.18l2.23.19,2.07.15q.86.07,1.71.11c.6,0,1.2.08,1.81.11l3.39.17c1.08,0,2.17.07,3.25.08l1.48,0,3.36,0,1.86,0c.38,0,.76,0,1.14,0,1.88-.06,3.79-.19,5.69-.39.6-.06,1.19-.12,1.8-.2s1.1-.13,1.66-.21a103.69,103.69,0,0,0,10.47-2l1.68-.42.44-.12q.86-.21,1.71-.46c.69-.19,1.38-.38,2.07-.6S482.38,424.39,483,424.19Z"/><path class="cls-17" d="M140.06,334.11c.44-.42.88-.81,1.31-1.2L141,333l-1,.19-.14,0-.27.06c-.71.14-1.43.29-2.13.45q-.7.14-1.39.32l-1.23.31c-.42.11-.83.21-1.24.33l-1.25.36c-.79.23-1.55.46-2.32.71q-.59.18-1.18.39l-.67.23-.23.08c-.49.17-1,.35-1.44.52s-.77.29-1.16.44c-.57.21-1.14.45-1.7.69l-.4.17-.92.4c-.6.25-1.19.52-1.77.81-.29.13-.57.26-.85.4s-.37.18-.55.27c-.58.27-1.16.57-1.74.88a5.88,5.88,0,0,0-.54.29c-.7.37-1.39.76-2.08,1.16s-1.64,1-2.44,1.46-1.6,1-2.38,1.54a92,92,0,0,0-22.7,21.89C73.67,385.66,64.75,409.83,60.57,437c-.14.85-.27,1.69-.38,2.54-.17,1.08-.31,2.18-.45,3.27-.11.69-.19,1.38-.26,2.08v0c-.15,1.25-.3,2.51-.43,3.77-.12,1-.23,2.06-.3,3.1s-.2,2.17-.29,3.26-.17,2.17-.23,3.25-.13,2.07-.18,3.11c0,.12,0,.25,0,.37,0,1-.1,2-.13,3,0,.39,0,.79,0,1.18q-.05,1.21-.07,2.43c0,1.07,0,2.16-.06,3.23s0,2.17,0,3.25v.32a152.94,152.94,0,0,0,2,27.53c.2,1.3.4,2.6.63,3.89.1.62.21,1.24.33,1.85s.25,1.42.39,2.11l.21,1.11c.19.93.38,1.85.58,2.75.11.5.21,1,.33,1.5q.79,3.41,1.69,6.74.21.84.46,1.68t.54,1.86q.32,1.11.68,2.21c.27.89.56,1.77.86,2.66.11.32.2.64.32,1s.21.64.33,1l.07.23c.15.46.33,1,.49,1.42,0,0,0,0,0,0A33.93,33.93,0,0,0,77,541a27.27,27.27,0,0,0,8.86,2.39h0a30.23,30.23,0,0,0,5.5,0h.06c.8,0,1.58-.07,2.37-.13a59.19,59.19,0,0,0,9.54-2.79c8.42-3.18,17.85-8.47,27.41-15.52,5-4.1,10.12-8.15,15-12.43l0,0a163.52,163.52,0,0,0,20-22.14c1.35-1.81,2.6-3.61,3.79-5.38a299,299,0,0,1-35.87-14.89l-.61-.31c-1.93,2.12-4.91,5.29-5.76,6.17-.42.43-.83.83-1.25,1.24a83.75,83.75,0,0,1-13.14,11,18,18,0,0,1-2.37,1.21s0,0,0,0a8.85,8.85,0,0,1-3,.65h-.07A6.46,6.46,0,0,1,104,489a14.93,14.93,0,0,1-3.1-3,21.12,21.12,0,0,1-3.68-7.67c-.07-.25-.14-.5-.19-.75A46.35,46.35,0,0,1,96,468.39v-.21q0-.93,0-1.79c0-3.76,0-6.91,0-6.91,0-.38,0-.76,0-1.17,0-.77,0-1.24,0-1.24,0-2.68.24-6.12.46-9.1l0-.37a2.12,2.12,0,0,1,0-.27v0c0-.38,0-.77,0-1.14a0,0,0,0,0,0,0h0a1.44,1.44,0,0,1,0-.23v-.14c0-1.56.12-3.13.21-4.74,0-.55.06-1.1.11-1.64,0-.12,0-.24,0-.36.07-1.12.15-2.25.25-3.38,0-.3,0-.6.08-.89.06-.94.15-1.89.25-2.85.27-2.76.6-5.57,1-8.41a219.37,219.37,0,0,1,5.49-27.6c.42-1.55.85-3.07,1.29-4.56q1-3.38,2.07-6.55,1-2.91,2-5.62a110.39,110.39,0,0,1,6.7-14.59,59.84,59.84,0,0,1,6.28-9.65c.2-.31.42-.61.63-.92.43-.63.88-1.26,1.36-1.92l.73-1,1-1.33a144.08,144.08,0,0,1,11.71-13.34C138.47,335.62,139.28,334.85,140.06,334.11Z"/><path class="cls-18" d="M133,469.88c-14.27-7.11-27.68-15.41-36.57-24a1.44,1.44,0,0,0,0,.23h0a0,0,0,0,1,0,0c0,.37,0,.76,0,1.14v0a2.12,2.12,0,0,0,0,.27l0,.37c-.23,3-.48,6.42-.46,9.1,0,0,0,.46,0,1.24,0,.4,0,.79,0,1.17,0,0,0,3.14,0,6.91q0,.86,0,1.79v.21a46.35,46.35,0,0,0,1.07,9.21c0,.25.12.5.19.75a21.12,21.12,0,0,0,3.68,7.67,14.93,14.93,0,0,0,3.1,3,6.46,6.46,0,0,0,3.33,1.16h.07a8.85,8.85,0,0,0,3-.65s0,0,0,0a18,18,0,0,0,2.37-1.21,83.75,83.75,0,0,0,13.14-11c.42-.4.83-.81,1.25-1.24C128.13,475.17,131.11,472,133,469.88Z"/><path class="cls-19" d="M494.36,382.79a45.12,45.12,0,0,0-6.16-11.93c-11.86-16.68-35.71-30-60.32-39.72a206.18,206.18,0,0,1-10.56,35.62c-.06.14-.11.29-.17.43l.26.32h0c1.7,1.21,15.59,9,21.39,14.84,2.74,2.76,7.54,7.26,5.07,10.57-3.43,4.61-15.58,7.42-23.22,8.2a164.57,164.57,0,0,1-20.69.31l-.36,0h-.19l-1.16-.1c-.65,0-1.32-.1-2-.17s-1.07-.08-1.63-.15-1.38-.12-2.07-.2l-2.35-.27c-.57-.07-1.13-.13-1.7-.23-1.93-.25-3.87-.54-5.8-.86l-1.56-.26-1.87-.33-1.52-.3c-.82-.15-1.63-.32-2.44-.5s-1.35-.27-2-.43c-1-.2-1.92-.44-2.87-.67s-2.11-.52-3.16-.8a3.48,3.48,0,0,1-.48-.12l-3.27-.91-.29-.08c-1.11-.32-2.23-.65-3.32-1a0,0,0,0,1,0,0c-1.18-.36-2.35-.74-3.51-1.13l-.15-.06c-1-.33-1.94-.67-2.92-1-.31-.11-.61-.21-.92-.35-.85-.3-1.67-.62-2.49-.93-1.08-.42-2.16-.85-3.2-1.3-.54-.2-1.06-.43-1.58-.67-2.32-1-4.61-2-6.85-3.14-1.3-.63-2.58-1.29-3.85-2l-.44-.24c-.71-.37-1.42-.76-2.11-1.14-.49-.27-1-.54-1.44-.82q-2.43-1.34-4.75-2.81c-.67-.42-1.35-.86-2-1.29s-1.35-.86-2-1.31-1.32-.89-2-1.36-1.31-.9-1.94-1.38c-1-.73-2-1.46-3-2.24h0l-.19-.13c.32.4.67.81,1,1.21.5.61,1,1.2,1.56,1.8s1,1.19,1.58,1.77q1.84,2,3.81,4c.38.4.77.79,1.17,1.18.57.56,1.14,1.12,1.73,1.67l.36.35c1,1,2.1,2,3.18,2.92q2.79,2.52,5.75,4.87c.44.37.88.73,1.35,1.07.89.71,1.81,1.42,2.74,2.11l2.14,1.57c.26.2.52.39.8.57.83.61,1.68,1.19,2.52,1.77l.14.1c1,.69,2,1.38,3.07,2t0,0c1,.63,2,1.25,2.94,1.86l.25.15c1,.6,1.93,1.18,2.91,1.75a4,4,0,0,0,.43.25c.93.55,1.87,1.08,2.82,1.62s1.71,1,2.58,1.41c.6.33,1.2.66,1.81,1s1.48.77,2.23,1.14l1.38.69,1.71.83,1.43.67q2.66,1.25,5.36,2.39c.52.24,1,.45,1.57.67.73.31,1.45.61,2.19.89s1.29.52,1.94.76,1,.4,1.52.58,1.24.48,1.86.69c.43.17.85.32,1.27.46.68.25,1.36.5,2,.73.45.17.93.32,1.39.48l.35.12,1.38.45q1.7.55,3.39,1.07l.77.24c.83.25,1.67.5,2.51.73l1.46.42c1.27.36,2.55.7,3.83,1,1.07.29,2.16.55,3.24.8q1.93.46,3.89.89c1.08.24,2.17.46,3.25.67q1.09.23,2.18.43l.75.13c.82.17,1.66.31,2.5.45,1.07.19,2.16.37,3.24.54s2.25.35,3.38.5l1.21.17c2.2.29,4.43.55,6.66.77l.3,0q.93.11,1.86.18l2.23.19,2.07.15q.86.07,1.71.11c.6,0,1.2.08,1.81.11l3.39.17c1.08,0,2.17.07,3.25.08l1.48,0,3.36,0,1.86,0c.38,0,.76,0,1.14,0,1.88-.06,3.79-.19,5.69-.39.6-.06,1.19-.12,1.8-.2s1.1-.13,1.66-.21a103.7,103.7,0,0,0,10.47-2l1.68-.42.44-.12q.86-.21,1.71-.46c.69-.19,1.38-.38,2.07-.6s1.17-.35,1.76-.54c1.29-.39,2.57-.82,3.85-1.26-.14.27-.3.55-.45.81l.25-.37C496.56,408,498.26,394.57,494.36,382.79Z"/><path class="cls-20" d="M258.94,496.87c0-1-.1-1.91-.15-2.87v-.1c0-.32,0-.65-.06-1q-5.52.79-11.15,1.27l-.43,0c0,.32-.06.64-.08,1-.38,4.14-.71,7.19-.92,8.49-.4,2.57-2.19,15.52-6.37,19.28a4.06,4.06,0,0,1-1.35.83,6.56,6.56,0,0,1-3.47.69,8.93,8.93,0,0,1-5-2.3c-4.81-4-9.36-12.68-11.91-22.76-.35-1.35-.64-3.31-.89-4.69a2.48,2.48,0,0,1,0-.26l-1.36-.08q-8.9-.66-17.55-2.1a1.15,1.15,0,0,0,0,.2c.88,47.24,25.85,84.81,39.5,86h0l.64,0h0a7,7,0,0,0,.71,0h-1.27l0,0a10.63,10.63,0,0,0,1.75-.14,12.49,12.49,0,0,0,6.85-3.73,20.85,20.85,0,0,0,2.91-3.7C257.49,558.12,260.48,530.47,258.94,496.87Z"/><path class="cls-21" d="M247.15,494.22c-6.37.54-12.84.76-19.36.67-3.57,0-7.13-.18-10.66-.43a2.48,2.48,0,0,0,0,.26c.25,1.38.55,3.35.89,4.69,2.55,10.07,7.1,18.79,11.91,22.76a8.93,8.93,0,0,0,5,2.3,6.56,6.56,0,0,0,3.47-.69,4.06,4.06,0,0,0,1.35-.83c4.18-3.76,6-16.71,6.37-19.28.2-1.3.54-4.35.92-8.49C247.09,494.86,247.12,494.54,247.15,494.22Z"/><path class="cls-22" d="M368.86,525.41c30.7-17.73,51.22-41.29,41.06-62.88-9.09-19.31-64.2-36.17-97.48-27.8-27.5,26.83-34.21,89-19.31,103.56S338.15,543.14,368.86,525.41Z"/><path class="cls-23" d="M258.94,82.34c0,1-.1,1.91-.15,2.87v.1c0,.32,0,.65-.06,1Q253.2,85.5,247.57,85l-.43,0c0-.32-.06-.64-.08-1-.38-4.14-.71-7.19-.92-8.49C245.74,73,244,60,239.77,56.26a4.06,4.06,0,0,0-1.35-.83,6.56,6.56,0,0,0-3.47-.69,8.93,8.93,0,0,0-5,2.3c-4.81,4-9.36,12.68-11.91,22.76-.35,1.35-.64,3.31-.89,4.69a2.48,2.48,0,0,0,0,.26l-1.36.08q-8.9.66-17.55,2.1a1.15,1.15,0,0,1,0-.2c.88-47.24,25.85-84.81,39.5-86h0l.64,0h0a7,7,0,0,1,.71,0h-1.27l0,0a10.63,10.63,0,0,1,1.75.14,12.49,12.49,0,0,1,6.85,3.73,20.85,20.85,0,0,1,2.91,3.7C257.49,21.08,260.48,48.73,258.94,82.34Z"/><path class="cls-24" d="M259.57,83.16c0,1-.1,1.93-.16,2.9v.1c0,.36,0,.73-.07,1.11,0,.17,0,.35,0,.55s0,.41,0,.61c-.12,1.77-.29,4.26-.46,6.91,0,.67-.1,1.34-.14,2,0,.13,0,.26,0,.4v.11l0,.49c-.16,1.91-.31,3.8-.48,5.68l-.07,1.42q-.09,1.32-.14,2.64a.59.59,0,0,0,0,.14,1479.52,1479.52,0,0,0,0,.22c0,.11,0,.22,0,.31-.18,1.83-.66,7.45-1.18,12.6a.15.15,0,0,1,0,.07c-.37,3.23-.83,6.43-1.34,9.59v0a218.35,218.35,0,0,1-9.68,38.26c.64-4.52,1.61-11.7,2.37-18.66.81-7.49,1.08-13.47,1.28-17.18.69-13.33-.36-31.59-1.38-44-.13-1.64-.26-3.16-.4-4.57-.39-4.19-.72-7.27-.93-8.58-.41-2.6-2.21-15.68-6.43-19.48A4.11,4.11,0,0,0,238.8,56a6.62,6.62,0,0,0-3.5-.7,9,9,0,0,0-5,2.32c-4.86,4-9.46,12.82-12,23-.35,1.36-.65,2.73-.9,4.13l-.07.35c-1.48.11-3,.23-4.43.36-2,.18-3.91.4-5.85.64q-4.42.54-8.78,1.28c0-.12,0-.24,0-.36.89-47.74,26.09-85.09,39.87-86.29h0l.65,0h0c.26,0,.52,0,.77,0h-1.34l0,0A12.14,12.14,0,0,1,247,4.64a21.07,21.07,0,0,1,2.94,3.74C258.12,21.26,261.14,49.2,259.57,83.16Z"/><path class="cls-25" d="M259.57,83.16c0,1-.1,1.93-.16,2.9v.1c0,.36,0,.73-.07,1.11,0,.17,0,.35,0,.55s0,.41,0,.61c-.12,1.77-.29,4.26-.46,6.91,0,.67-.1,1.34-.14,2,0,.13,0,.26,0,.4v.11l0,.49c-.16,1.91-.31,3.8-.48,5.68l-.07,1.42q-.09,1.32-.14,2.64a.59.59,0,0,0,0,.14,1479.52,1479.52,0,0,0,0,.22c0,.11,0,.22,0,.31-.18,1.83-.66,7.45-1.18,12.6a.15.15,0,0,1,0,.07c-.37,3.23-.83,6.43-1.34,9.59v0a218.35,218.35,0,0,1-9.68,38.26c.64-4.52,1.61-11.7,2.37-18.66.81-7.49,1.08-13.47,1.28-17.18.69-13.33-.36-31.59-1.38-44-.13-1.64-.26-3.16-.4-4.57-.39-4.19-.72-7.27-.93-8.58-.41-2.6-2.21-15.68-6.43-19.48A4.11,4.11,0,0,0,238.8,56a6.62,6.62,0,0,0-3.5-.7,9,9,0,0,0-5,2.32c-4.86,4-9.46,12.82-12,23-.35,1.36-.65,2.73-.9,4.13l-.07.35c-1.48.11-3,.23-4.43.36-2,.18-3.91.4-5.85.64q-4.42.54-8.78,1.28c0-.12,0-.24,0-.36.89-47.74,26.09-85.09,39.87-86.29h0l.65,0h0c.26,0,.52,0,.77,0h-1.34l0,0A12.14,12.14,0,0,1,247,4.64a21.07,21.07,0,0,1,2.94,3.74C258.12,21.26,261.14,49.2,259.57,83.16Z"/><path class="cls-26" d="M370.23,52.74C403.52,72,425.55,97.87,414,122.12c-10.29,21.69-70.9,41.47-107.17,32.73C277.26,125.43,271,56.27,287.59,39.73S336.94,33.53,370.23,52.74Z"/><path class="cls-27" d="M27.43,389.23h-.81v0C26.9,389.23,27.16,389.23,27.43,389.23Z"/><path class="cls-28" d="M27.43,174.17c-.27,0-.54,0-.81,0v0Z"/><path class="cls-29" d="M69.58,178.12c-.14-.39-.29-.79-.42-1.18-.26-.69-.5-1.38-.73-2.07-.14-.42-.29-.82-.42-1.24-.26-.76-.5-1.51-.74-2.29q-.3-.93-.57-1.86c-.08-.24-.15-.49-.23-.74-.21-.68-.4-1.36-.6-2s-.45-1.57-.66-2.36c-.18-.63-.35-1.25-.5-1.88-.08-.3-.17-.6-.23-.89-.14-.54-.27-1.06-.4-1.6-.23-.94-.45-1.87-.68-2.82,0-.07,0-.15,0-.23-.27-1.2-.54-2.41-.79-3.62-.19-.88-.37-1.79-.55-2.68,0-.17-.06-.32-.1-.49-.07-.36-.13-.71-.2-1.07,0-.08,0-.17,0-.25-.17-.89-.32-1.79-.48-2.69l-.07-.42q-.3-1.73-.57-3.5c-.14-.85-.27-1.69-.38-2.54-.17-1.08-.31-2.18-.45-3.27-.11-.69-.19-1.38-.26-2.08v0c-.15-1.25-.3-2.51-.43-3.78-.12-1-.23-2.06-.3-3.1s-.2-2.17-.29-3.26-.17-2.17-.23-3.25-.13-2.07-.18-3.11c0-.12,0-.25,0-.37,0-1-.1-2-.13-3,0-.39,0-.79,0-1.18q-.05-1.21-.07-2.43c0-1.07,0-2.16-.06-3.23s0-2.17,0-3.25V104a152.94,152.94,0,0,1,2-27.53c.2-1.3.4-2.6.63-3.89.1-.62.21-1.24.33-1.85s.25-1.42.39-2.11l.21-1.11c.19-.93.38-1.85.58-2.75.11-.5.21-1,.33-1.5q.79-3.41,1.69-6.74.21-.84.46-1.68T64.91,53q.32-1.11.68-2.21c.27-.89.56-1.77.86-2.66.11-.32.2-.64.32-1s.21-.64.33-1l.07-.23c.15-.46.33-1,.49-1.42,0,0,0,0,0,0s0,0,0,0c-1.85,1.1-3.38,2.23-4.67,3.17-3.85,2.83-7.57,5.73-11.23,8.69C37.25,68.13,24,80.61,10.06,92.89Q6.15,96.37,2.14,99.8A5.79,5.79,0,0,0,0,104.07a18.9,18.9,0,0,0,.2,3.36c1.87,16.7,4.12,33.34,5.7,50.06Q7.46,173.73,8.63,190q.66,9.2,1.2,18.41,1.34,22.85,1.94,45.72.45,17.74.51,35.49h0q-.05,17.74-.51,35.48-.59,22.86-1.94,45.71-.54,9.2-1.2,18.4-1.18,16.27-2.7,32.51c-1.58,16.72-3.83,33.37-5.7,50.06a18.9,18.9,0,0,0-.2,3.36,5.79,5.79,0,0,0,2.12,4.28q4,3.43,7.92,6.91C24,498.57,37.25,511.05,51.79,522.78c3.66,3,7.38,5.86,11.23,8.69,1.29.94,2.82,2.07,4.67,3.17,0,0,0,0,0,0s0,0,0,0c-.15-.46-.33-1-.49-1.42l-.07-.23c-.12-.32-.23-.64-.33-1s-.21-.63-.32-1c-.3-.88-.58-1.76-.86-2.66q-.36-1.11-.68-2.21-.29-.91-.54-1.86t-.46-1.68q-.91-3.32-1.69-6.74c-.12-.5-.23-1-.33-1.5-.2-.91-.39-1.82-.58-2.75l-.21-1.11q-.21-1-.39-2.11c-.12-.61-.24-1.23-.33-1.85-.23-1.3-.43-2.6-.63-3.89a152.94,152.94,0,0,1-2-27.53v-.32c0-1.08,0-2.17,0-3.25s0-2.16.06-3.23q0-1.21.07-2.43c0-.39,0-.79,0-1.18,0-1,.08-2,.13-3,0-.12,0-.25,0-.37q.07-1.55.18-3.11c.06-1.08.13-2.17.23-3.25s.18-2.18.29-3.26.18-2.07.3-3.1c.13-1.26.27-2.52.43-3.78v0c.07-.7.15-1.39.26-2.08.14-1.1.29-2.19.45-3.27.11-.85.24-1.69.38-2.54q.27-1.77.57-3.5l.07-.42c.08-.55.18-1.08.29-1.62.24-1.31.48-2.61.74-3.91l.32-1.52c.24-1.14.48-2.29.74-3.42s.52-2.26.8-3.38c.13-.54.26-1.07.4-1.6s.3-1.16.45-1.74c.92-3.51,1.94-7,3.06-10.32.15-.5.32-1,.5-1.48a.67.67,0,0,1,0-.14c.32-1,.66-1.89,1-2.83l.32-.85s0,0,0,0V289.59h0V179C69.78,178.69,69.67,178.4,69.58,178.12Z"/><path class="cls-30" d="M483,424.19c1.29-.39,2.57-.82,3.85-1.26-.14.27-.3.55-.45.81a296,296,0,0,1-79.29,92h0q-2.13,1.64-4.29,3.24l-.23.17a308,308,0,0,1-141.39,57.2,0,0,0,0,1,0,0c-1.55.21-3.1.42-4.66.6l-.88.11c-3.69.45-7.41.82-11.15,1.13-1.43.12-2.87.23-4.3.32h-2.27l0,0a10.64,10.64,0,0,0,1.75-.14,12.49,12.49,0,0,0,6.85-3.73,20.84,20.84,0,0,0,2.91-3.7c8.11-12.74,11.1-40.39,9.55-74,0-1-.1-1.91-.15-2.87v-.1l0-.46h0a.09.09,0,0,0,0,0c0-.14,0-.3,0-.45s0-.07,0-.11,0-.37,0-.55,0-.4,0-.61c0-.4,0-.8-.06-1.2-.12-1.89-.24-3.77-.39-5.63,0-.67-.1-1.32-.14-2,0-.13,0-.26,0-.39v-.11l0-.49c-.15-1.89-.31-3.76-.48-5.62l-.07-1.41q-.09-1.3-.14-2.61a.58.58,0,0,1,0-.14,1446.92,1446.92,0,0,1,0-.21c0-.11,0-.21,0-.31-.12-1.68-.24-3.35-.39-5a.2.2,0,0,0,0-.08c0-.54-.08-1.06-.13-1.58s-.08-.81-.13-1.23c-.13-1.49-.27-3-.43-4.57a.15.15,0,0,0,0-.07c-.37-3.19-.82-6.36-1.32-9.49v0a216.07,216.07,0,0,0-9.59-37.86l0,.29a2.68,2.68,0,0,0-.1-.29c-.08-.24-.17-.49-.26-.73l-.08-.23c0-.08-.06-.17-.08-.24q-1.68-4.63-3.54-9.06c-11.44-27.23-28.26-48.8-48.72-60.4a74.26,74.26,0,0,0-7.74-3.85l-.37-.15-.24-.1a68.44,68.44,0,0,0-26.54-5.35,93.51,93.51,0,0,0-13.1.89c-.32,0-.64.08-1,.14s-.61.1-.92.14l-1.23.2L141,333l-1,.19-.14,0-.27.06c-.71.14-1.43.29-2.13.45q-.7.14-1.39.32l-1.23.31c-.42.11-.83.21-1.24.33l-1.25.36c-.79.23-1.55.46-2.32.71q-.59.18-1.18.39l-.67.23-.23.08c-.49.17-1,.35-1.44.52s-.77.29-1.16.44c-.57.21-1.14.45-1.7.69l-.4.17-.92.4c-.6.25-1.19.52-1.77.81-.29.13-.57.26-.85.4s-.37.18-.55.27c-.58.27-1.16.57-1.74.88a5.83,5.83,0,0,0-.54.29c-.7.37-1.39.76-2.08,1.16s-1.64,1-2.44,1.46-1.6,1-2.38,1.54c-1.08.71-2.14,1.46-3.19,2.24-.58.43-1.14.86-1.7,1.29-1.06.82-2.1,1.67-3.12,2.55-.33.27-.67.56-1,.86a90.18,90.18,0,0,0-7.3,7.18c-.45.49-.89,1-1.32,1.49s-.88,1-1.31,1.52c-1.29,1.54-2.55,3.13-3.76,4.76l-.54.73h0l-1,1.43c-.39.55-.77,1.11-1.16,1.67s-.67,1-1,1.46-.81,1.21-1.19,1.83-.77,1.24-1.14,1.86-.74,1.21-1.08,1.82a1.73,1.73,0,0,0-.1.15c-.74,1.25-1.44,2.52-2.12,3.81s-1.39,2.66-2.06,4c-.49,1-1,2-1.43,3-.1.19-.18.39-.26.58-.33.7-.64,1.42-1,2.13-.19.42-.37.83-.55,1.25-.66,1.54-1.29,3.08-1.89,4.66-.32.83-.64,1.67-1,2.51l-.32.85c-.33.94-.67,1.88-1,2.83a.67.67,0,0,0,0,.14c-.18.49-.35,1-.5,1.48-1.12,3.36-2.14,6.81-3.06,10.32-.15.58-.31,1.16-.45,1.74s-.27,1.06-.4,1.6c-.27,1.12-.54,2.25-.8,3.38s-.5,2.27-.74,3.42l-.32,1.52c-.26,1.3-.5,2.6-.74,3.91-.11.54-.2,1.07-.29,1.62l-.07.42q-.3,1.73-.57,3.5c-.14.85-.27,1.69-.38,2.54-.17,1.08-.31,2.18-.45,3.27-.11.69-.19,1.38-.26,2.08v0c-.15,1.25-.3,2.51-.43,3.77-.12,1-.23,2.06-.3,3.1s-.2,2.17-.29,3.26-.17,2.17-.23,3.25-.13,2.07-.18,3.11c0,.12,0,.25,0,.37,0,1-.1,2-.13,3,0,.39,0,.79,0,1.18q-.05,1.21-.07,2.43c0,1.07,0,2.16-.06,3.23s0,2.17,0,3.25v.32a152.94,152.94,0,0,0,2,27.53c.2,1.3.4,2.6.63,3.89.1.62.21,1.24.33,1.85s.25,1.42.39,2.11l.21,1.11c.19.93.38,1.85.58,2.75.11.5.21,1,.33,1.5q.79,3.41,1.69,6.74.21.84.46,1.68t.54,1.86q.32,1.11.68,2.22c.27.89.56,1.77.86,2.66.11.32.2.64.32,1s.21.64.33,1l.07.23c.15.46.33,1,.49,1.42,0,0,0,0,0,0s0,0,0,0c-1.85-1.1-3.38-2.23-4.67-3.17-3.85-2.83-7.57-5.73-11.23-8.69C37.25,511.06,24,498.58,10.06,486.3q-3.91-3.48-7.92-6.91A5.79,5.79,0,0,1,0,475.12a18.9,18.9,0,0,1,.2-3.36c1.87-16.7,4.12-33.34,5.7-50.06q1.54-16.24,2.7-32.51.66-9.2,1.2-18.4,1.34-22.83,1.94-45.71.45-17.74.51-35.48t-.51-35.49q-.59-22.86-1.94-45.72Q9.3,199.2,8.63,190q-1.18-16.26-2.7-32.49c-1.58-16.72-3.83-33.37-5.7-50.06a18.9,18.9,0,0,1-.2-3.36,5.79,5.79,0,0,1,2.12-4.28q4-3.43,7.92-6.91C24,80.62,37.25,68.14,51.79,56.41c3.66-3,7.38-5.86,11.23-8.69,1.29-.94,2.82-2.07,4.67-3.17,0,0,0,0,0,0s0,0,0,0c-.15.46-.33,1-.49,1.42l-.07.23c-.12.32-.23.64-.33,1s-.21.63-.32,1c-.3.88-.58,1.76-.86,2.66q-.36,1.11-.68,2.21-.29.91-.54,1.86t-.46,1.68Q63,59.9,62.22,63.32c-.12.5-.23,1-.33,1.5-.2.91-.39,1.82-.58,2.75l-.21,1.11q-.21,1-.39,2.11c-.12.61-.24,1.23-.33,1.85-.23,1.3-.43,2.6-.63,3.89a152.94,152.94,0,0,0-2,27.53v.32c0,1.08,0,2.17,0,3.25s0,2.16.06,3.23q0,1.21.07,2.43c0,.39,0,.79,0,1.18,0,1,.08,2,.13,3,0,.12,0,.25,0,.37q.07,1.55.18,3.11c.06,1.08.13,2.17.23,3.25s.18,2.18.29,3.26.18,2.07.3,3.1c.13,1.26.27,2.52.43,3.78v0c.07.7.15,1.39.26,2.08.14,1.1.29,2.19.45,3.27.11.85.24,1.69.38,2.54q.27,1.77.57,3.5l.07.42c.15.91.31,1.8.48,2.69,0,.08,0,.17,0,.25.07.36.13.71.2,1.07,0,.17.06.32.1.49.18.89.36,1.8.55,2.68.25,1.21.51,2.42.79,3.62,0,.07,0,.15,0,.23.23,1,.45,1.88.68,2.82.13.54.26,1.06.4,1.6.06.3.14.6.23.89.15.63.32,1.25.5,1.88.2.79.43,1.57.66,2.36s.38,1.37.6,2c.07.25.14.5.23.74q.27.93.57,1.86c.24.77.48,1.52.74,2.29.13.42.27.82.42,1.24.23.69.46,1.38.73,2.07.13.39.27.79.42,1.18.25.73.52,1.45.81,2.17.12.33.25.67.38,1,.24.62.48,1.25.73,1.86l.17.42c.57,1.42,1.17,2.82,1.79,4.2.26.62.55,1.24.83,1.85s.42.93.64,1.38c.31.69.64,1.37,1,2s.65,1.35,1,2,.68,1.33,1,2c.68,1.29,1.38,2.56,2.12,3.81a.36.36,0,0,0,.08.12l.2.36c.29.5.57,1,.89,1.49s.75,1.25,1.14,1.87.77,1.23,1.19,1.83.63,1,1,1.46l.1.13q.18.29.39.57c.54.81,1.11,1.61,1.7,2.39h0c.17.24.35.49.54.73a1.15,1.15,0,0,0,.15.2c.26.37.55.74.83,1.11.51.68,1,1.33,1.56,2s1,1.26,1.55,1.87l.08.1.7.82.19.21q.75.88,1.54,1.71l.88.94c.3.32.58.63.89.93.91,1,1.85,1.87,2.79,2.77.54.51,1.08,1,1.63,1.51l.63.56c.67.6,1.33,1.17,2,1.73s1.56,1.29,2.36,1.91,1.39,1.07,2.11,1.58l.58.42c.73.52,1.46,1,2.2,1.52s1.58,1,2.38,1.54,1.62,1,2.44,1.46,1.38.79,2.08,1.16a5.85,5.85,0,0,0,.54.29c.58.31,1.16.61,1.74.88.18.1.36.19.55.27s.56.27.85.4c.58.29,1.18.56,1.77.81l.92.4.4.17c.56.24,1.13.48,1.7.69.38.15.77.31,1.16.44s1,.36,1.44.52l.23.08.67.23q.59.21,1.18.39c.77.25,1.54.49,2.32.71l1.25.36c.4.12.82.23,1.24.33l1.23.31q.7.18,1.39.32c.7.17,1.42.31,2.13.45l.27.06.14,0,1,.19.35.06,1.23.2c.31,0,.61.11.92.14s.64.1,1,.14a93.51,93.51,0,0,0,13.1.89,68.44,68.44,0,0,0,26.54-5.35l.24-.1.37-.15a74.26,74.26,0,0,0,7.74-3.85c20.46-11.6,37.27-33.17,48.72-60.4,1.21-2.88,2.36-5.82,3.45-8.84,0-.07.06-.14.08-.23s.11-.31.17-.46.18-.49.26-.73a2.67,2.67,0,0,0,.1-.29l0,.29c.38-1.06.74-2.13,1.11-3.2a.11.11,0,0,0,0-.06l1.14-3.49c1-3,1.86-6.13,2.69-9.26.36-1.36.7-2.72,1-4.08s.68-2.82,1-4.25l0-.17c.32-1.43.62-2.86.92-4.3l0-.18q.39-1.93.75-3.89c.06-.3.11-.6.15-.91.25-1.35.49-2.7.7-4.06v0c.5-3.13,1-6.3,1.32-9.49a.15.15,0,0,0,0-.07c.15-1.52.3-3.08.43-4.57,0-.42.1-.82.13-1.23s.1-1,.13-1.58a.2.2,0,0,0,0-.08c.15-1.66.27-3.32.39-5,0-.1,0-.2,0-.31a1052961.8,1052961.8,0,0,0,0-.21.58.58,0,0,1,0-.14q.05-1.3.14-2.61l.07-1.41c.17-1.86.32-3.73.48-5.62l0-.49v-.11c0-.13,0-.26,0-.39,0-.65.11-1.31.14-2,.15-1.86.27-3.74.39-5.63,0-.4,0-.8.06-1.2,0-.2,0-.4,0-.61s0-.37,0-.55,0-.07,0-.11v0c0-.32,0-.64.06-1v-.1c.06-1,.11-1.92.15-2.87,1.55-33.61-1.44-61.26-9.55-74a20.85,20.85,0,0,0-2.91-3.7A12.49,12.49,0,0,0,239.63.91a10.63,10.63,0,0,0-1.75-.14l0,0h.61a.05.05,0,0,1,.06,0h1.61c1.43.1,2.87.2,4.3.32,3.74.31,7.45.68,11.15,1.13l.88.11c1.56.18,3.11.38,4.66.6a0,0,0,0,1,0,0,308,308,0,0,1,141.39,57.2l.23.17q2.16,1.59,4.29,3.24h0a296,296,0,0,1,79.29,92c.15.26.31.54.45.81-1.27-.44-2.56-.87-3.85-1.26-.6-.19-1.18-.37-1.76-.54s-1.38-.4-2.07-.6-1.14-.32-1.71-.46l-.44-.12-1.68-.42a103.65,103.65,0,0,0-10.47-2c-.56-.08-1.11-.15-1.66-.21s-1.2-.14-1.8-.2c-1.91-.2-3.81-.33-5.69-.39-.38,0-.76,0-1.14,0l-1.86,0-3.36,0-1.48,0c-1.08,0-2.17,0-3.25.08l-3.39.17c-.61,0-1.21.06-1.81.11s-1.14.06-1.71.11l-2.07.15-2.23.19q-.93.07-1.86.18l-.3,0c-2.23.23-4.45.49-6.66.77l-1.21.17c-1.13.15-2.26.32-3.38.5s-2.17.35-3.24.54c-.85.14-1.68.29-2.5.45l-.75.13q-1.09.2-2.18.43c-1.08.2-2.17.43-3.25.67q-2,.43-3.89.89c-1.08.25-2.17.51-3.24.8-1.29.32-2.56.67-3.83,1l-1.46.42c-.85.23-1.68.48-2.51.73l-.77.24q-1.7.52-3.39,1.07l-.19.06-1.19.39-.14,0-.2.07c-.46.15-.94.31-1.39.48-.69.23-1.37.48-2,.73-.43.14-.85.3-1.27.46-.62.21-1.24.44-1.86.69s-1,.37-1.52.58-1.3.49-1.94.76-1.46.58-2.19.89c-.52.21-1,.43-1.57.67q-2.7,1.14-5.36,2.39l-1.43.67-1.71.83-1.38.69c-.75.37-1.49.75-2.23,1.14s-1.21.62-1.81,1c-.87.45-1.73.93-2.58,1.41s-1.89,1.07-2.82,1.62a4,4,0,0,0-.43.25c-1,.57-1.94,1.16-2.91,1.75l-.25.15c-1,.61-2,1.23-2.94,1.86t0,0c-1,.65-2.06,1.35-3.07,2l-.14.1c-.85.58-1.69,1.17-2.52,1.77-.27.18-.54.37-.8.57l-2.14,1.57c-.93.69-1.85,1.39-2.74,2.11-.46.35-.91.7-1.35,1.07q-3,2.36-5.75,4.87c-1.08,1-2.14,1.93-3.18,2.92l-.36.35c-.58.55-1.16,1.11-1.73,1.67-.39.39-.79.77-1.17,1.18q-2,1.95-3.81,4c-.54.58-1.07,1.18-1.58,1.77s-1.06,1.19-1.56,1.8c-.35.4-.69.81-1,1.21-.19.2-.36.4-.52.62l-.56.68c-.21.26-.43.52-.63.8h0l0,.06c-.08.1-.15.2-.24.31-.8,1-1.56,2-2.3,3q-.54.68-1,1.39c-.63.87-1.26,1.75-1.87,2.64-1.2,1.73-2.35,3.49-3.45,5.29-.37.6-.74,1.19-1.1,1.8s-.71,1.21-1.06,1.82-.7,1.21-1,1.83c-.69,1.23-1.35,2.48-2,3.73h0c-.33.63-.64,1.26-.94,1.89s-.62,1.26-.92,1.91-.6,1.29-.88,1.93-.57,1.3-.85,2c-.21.49-.42,1-.62,1.48q-1.73,4.18-3.14,8.54c-.23.68-.44,1.37-.65,2.06s-.42,1.38-.62,2.07q-.84,2.89-1.54,5.86c-.14.55-.26,1.1-.38,1.66q-.27,1.16-.5,2.32c-.1.45-.19.91-.27,1.37-.36,1.86-.68,3.74-1,5.63-.1.63-.18,1.26-.26,1.91s-.17,1.27-.24,1.92-.13,1.14-.19,1.71c0,.18,0,.36,0,.54-.06.54-.12,1.07-.15,1.61s-.12,1.3-.15,2c-.1,1.31-.17,2.62-.23,3.94,0,.65-.06,1.32-.07,2,0,.49,0,1,0,1.49s0,1,0,1.44,0,.94,0,1.43,0,1,0,1.49c0,.67,0,1.33.07,2,.06,1.32.13,2.63.23,3.94,0,.65.1,1.31.15,2s.1,1.07.15,1.61c0,.18,0,.36,0,.54.06.57.12,1.14.19,1.71s.14,1.29.24,1.92.17,1.27.26,1.91c.27,1.89.6,3.78,1,5.63.08.46.18.92.27,1.37q.23,1.16.5,2.32c.12.56.24,1.11.38,1.66q.7,3,1.54,5.86c.2.69.4,1.38.62,2.07s.43,1.38.65,2.06q1.41,4.36,3.14,8.54c.2.5.4,1,.62,1.48.27.65.55,1.3.85,2s.58,1.29.88,1.93.6,1.27.92,1.91.61,1.26.94,1.89h0c.63,1.25,1.29,2.5,2,3.73.33.62.68,1.23,1,1.83s.69,1.21,1.06,1.82.73,1.2,1.1,1.8q1.64,2.7,3.45,5.29c.61.89,1.24,1.77,1.87,2.64q.5.71,1,1.39c.74,1,1.5,2,2.3,3,.1.12.19.25.3.37a.58.58,0,0,0,.13.17.08.08,0,0,0,0,.06h0c.14.19.3.38.45.56l.56.68c.17.21.33.42.52.62.32.4.67.81,1,1.21.5.61,1,1.2,1.56,1.8s1,1.19,1.58,1.77q1.84,2,3.81,4c.38.4.77.79,1.17,1.18.57.56,1.14,1.12,1.73,1.67l.36.35c1,1,2.1,2,3.18,2.92q2.79,2.52,5.75,4.87c.44.37.88.73,1.35,1.07.89.71,1.81,1.42,2.74,2.11l2.14,1.57c.26.2.52.39.8.57.83.61,1.68,1.19,2.52,1.77l.14.1c1,.69,2,1.38,3.07,2t0,0c1,.63,2,1.25,2.94,1.86l.25.15c1,.6,1.93,1.18,2.91,1.75a4,4,0,0,0,.43.25c.93.55,1.87,1.08,2.82,1.62s1.71,1,2.58,1.41c.6.33,1.2.66,1.81,1s1.48.77,2.23,1.14l1.38.69,1.71.83,1.43.67q2.66,1.25,5.36,2.39c.52.24,1,.45,1.57.67.73.31,1.45.61,2.19.89s1.29.52,1.94.76,1,.4,1.52.58,1.24.48,1.86.69c.43.17.85.32,1.27.46.68.25,1.36.5,2,.73.45.17.93.32,1.39.48l.35.12.17.06,1.21.39q1.7.55,3.39,1.07l.77.24c.83.25,1.67.5,2.51.73l1.46.42c1.27.36,2.55.7,3.83,1,1.07.29,2.16.55,3.24.8q1.93.46,3.89.89c1.08.24,2.17.46,3.25.67q1.09.23,2.18.43l.75.13c.82.17,1.66.31,2.5.45,1.07.19,2.16.37,3.24.54s2.25.35,3.38.5l1.21.17c2.2.29,4.43.55,6.66.77l.3,0q.93.11,1.86.18l2.23.19,2.07.15q.86.07,1.71.11c.6,0,1.2.08,1.81.11l3.39.17c1.08,0,2.17.07,3.25.08l1.48,0,3.36,0,1.86,0c.38,0,.76,0,1.14,0,1.88-.06,3.79-.19,5.69-.39.6-.06,1.19-.12,1.8-.2s1.1-.13,1.66-.21a103.69,103.69,0,0,0,10.47-2l1.68-.42.44-.12q.86-.21,1.71-.46c.69-.19,1.38-.38,2.07-.6S482.38,424.39,483,424.19Z"/><path class="cls-31" d="M262.39,497.19c0-1-.1-2-.15-3v-.1c0-.32,0-.65-.06-1v0s0-.07,0-.11c0-.19,0-.38,0-.57s0-.42,0-.62c0-.43,0-.83-.07-1.25-.12-2-.24-3.9-.4-5.82,0-.69-.1-1.37-.14-2,0-.13,0-.27,0-.4v-.11l0-.51c-.17-2-.32-3.89-.5-5.81l-.07-1.45c-.06-.9-.11-1.8-.14-2.7a.58.58,0,0,1,0-.14.33.33,0,0,1,0-.11.37.37,0,0,1,0-.12,2.46,2.46,0,0,0,0-.31c-.12-1.74-.24-3.46-.4-5.18a.2.2,0,0,0,0-.08c0-.56-.08-1.09-.13-1.64s-.08-.83-.13-1.26c-.14-1.55-.29-3.15-.45-4.72a.2.2,0,0,0,0-.08c-.38-3.3-.85-6.57-1.37-9.81v0c-.21-1.4-.46-2.81-.73-4.2,0-.32-.1-.63-.15-.93-.25-1.36-.5-2.7-.77-4l0-.18c-.31-1.49-.62-3-1-4.45l0-.17q-.5-2.21-1-4.39c-.35-1.42-.7-2.82-1.07-4.22-.86-3.24-1.8-6.44-2.79-9.58-.39-1.2-.79-2.42-1.18-3.61a.11.11,0,0,0,0-.06c-.38-1.11-.75-2.21-1.14-3.31l0,.29a2.67,2.67,0,0,0-.1-.29c-.1-.25-.18-.51-.27-.75s-.11-.32-.18-.49-.06-.15-.08-.23c-1.13-3.12-2.31-6.16-3.57-9.14-11.84-28.15-29.22-50.44-50.39-62.42a77.13,77.13,0,0,0-8-4l-.38-.17-.24-.1a70.92,70.92,0,0,0-27.46-5.53,96.3,96.3,0,0,0-13.55.93c-.33,0-.67.08-1,.14l-.94.15-1.27.2a3.13,3.13,0,0,1-.36.07l-1,.19-.14,0-.29.06c-.74.15-1.48.3-2.2.48-.48.1-1,.2-1.44.33s-.85.2-1.27.32-.86.21-1.27.35l-1.3.37c-.81.23-1.6.48-2.41.74-.4.12-.81.25-1.21.4l-.69.23c-.08,0-.15.07-.23.1-.51.17-1,.36-1.5.54l-1.19.45c-.6.23-1.18.48-1.76.71l-.42.18-1,.42c-.61.26-1.23.55-1.83.83-.3.14-.58.27-.87.43s-.38.18-.57.27c-.61.29-1.19.59-1.8.92a4.16,4.16,0,0,0-.55.3c-.73.38-1.44.79-2.16,1.19s-1.7,1-2.52,1.51-1.66,1-2.47,1.59-1.54,1-2.29,1.57l-.6.43q-1.11.8-2.18,1.64c-.83.64-1.64,1.3-2.44,2s-1.39,1.18-2.08,1.78l-.66.58-1.69,1.56c-1,.94-1.94,1.89-2.88,2.87-.32.31-.61.63-.92,1l-.92,1c-.54.57-1.07,1.17-1.58,1.77l-.2.21-.73.86-.08.1c-.54.63-1.07,1.29-1.6,1.93s-1.1,1.36-1.62,2.06c-.3.38-.6.76-.86,1.14a1.17,1.17,0,0,0-.17.21c-.19.25-.38.5-.55.75h0c-.62.81-1.21,1.64-1.76,2.48a4.76,4.76,0,0,0-.4.59,1,1,0,0,0-.11.13c-.36.49-.69,1-1,1.51s-.83,1.26-1.23,1.89S79,372,78.63,372.64c-.33.5-.63,1-.93,1.54-.07.13-.13.25-.2.37a.25.25,0,0,0-.1.13c-.76,1.29-1.49,2.61-2.19,3.94-.38.68-.74,1.37-1.08,2.06s-.71,1.38-1,2.08-.7,1.4-1,2.12c-.23.46-.45,1-.65,1.43-.3.63-.6,1.27-.87,1.9-.64,1.43-1.25,2.88-1.85,4.34l-.17.44c-.26.62-.51,1.27-.76,1.92l-.39,1c-.3.74-.57,1.49-.83,2.24-.14.4-.3.81-.43,1.23q-.41,1.07-.75,2.14c-.15.43-.3.84-.44,1.27-.26.79-.51,1.56-.76,2.37-.2.64-.4,1.27-.58,1.92-.1.25-.17.51-.24.76-.23.7-.42,1.4-.62,2.12s-.46,1.63-.68,2.44c-.18.65-.36,1.3-.51,1.94-.08.31-.17.62-.24.93-.14.55-.27,1.09-.42,1.65-.23,1-.46,1.93-.7,2.92,0,.07,0,.15,0,.23-.29,1.25-.55,2.49-.81,3.75-.2.9-.38,1.84-.57,2.77,0,.17-.06.32-.1.5-.07.37-.13.74-.21,1.11,0,.08,0,.18,0,.26-.17.92-.33,1.84-.49,2.78q0,.2-.07.43c-.21,1.19-.4,2.39-.6,3.62-.14.87-.29,1.75-.39,2.62-.18,1.12-.32,2.25-.46,3.39-.12.71-.2,1.43-.27,2.15v0c-.17,1.29-.31,2.59-.44,3.9-.13,1.06-.24,2.13-.31,3.2s-.21,2.24-.3,3.37-.18,2.24-.24,3.36-.13,2.14-.18,3.21c0,.13,0,.26,0,.38,0,1-.11,2-.14,3.06,0,.4,0,.81,0,1.21,0,.84-.06,1.68-.07,2.51,0,1.11,0,2.24-.06,3.34s0,2.24,0,3.36v.33a156.64,156.64,0,0,0,2.08,28.45q.3,2,.64,4c.11.63.23,1.27.35,1.9s.26,1.46.4,2.18l.23,1.14c.2,1,.39,1.92.61,2.84.11.52.21,1,.35,1.55.54,2.36,1.12,4.69,1.75,7,.14.58.3,1.15.48,1.74s.36,1.29.56,1.92.64,1.41.88,2.18c.15.51.34,1,.51,1.54,0,.11.09.32.17.38,1.29.93,2.7,2,4.55,3.08,0,0,0,0,0,0s0,0,0,0c-.15-.46-.33-1-.49-1.42,0-.07,0-.17-.07-.23-.12-.32-.23-.65-.33-1s-.21-.63-.32-1c-.3-.88-.58-1.76-.86-2.65s-.46-1.48-.68-2.23-.37-1.21-.54-1.84-.32-1.13-.46-1.69c-.61-2.21-1.17-4.46-1.69-6.72-.12-.5-.23-1-.33-1.5-.2-.9-.39-1.82-.58-2.76l-.21-1.09c-.14-.7-.27-1.39-.39-2.11s-.24-1.23-.33-1.86c-.23-1.28-.43-2.58-.63-3.89a152.64,152.64,0,0,1-2-27.51v-.31c0-1.09,0-2.17,0-3.26s0-2.14.06-3.21c0-.82,0-1.62.07-2.44,0-.38,0-.79,0-1.18,0-1,.08-2,.13-2.94a3.6,3.6,0,0,1,0-.37c0-1,.11-2.07.18-3.12s.13-2.15.23-3.25.18-2.17.29-3.26.18-2.06.3-3.08q.2-1.89.43-3.78v0c.07-.7.15-1.38.26-2.08.14-1.08.29-2.19.45-3.27.11-.84.24-1.68.38-2.52q.27-1.77.57-3.5l.07-.42c.15-.9.31-1.8.48-2.69,0-.1,0-.17,0-.25.07-.36.13-.73.2-1.07,0-.17.06-.32.1-.5.18-.89.36-1.8.55-2.68.25-1.21.51-2.42.79-3.62,0-.06,0-.14,0-.21.23-1,.45-1.89.68-2.82.13-.55.26-1.06.4-1.59.06-.3.14-.59.23-.89.15-.63.32-1.25.5-1.89s.43-1.56.66-2.36.38-1.36.6-2c.07-.25.14-.51.23-.74.18-.62.37-1.25.57-1.86.24-.79.48-1.52.74-2.3.13-.4.27-.82.42-1.23.23-.69.46-1.39.73-2.07.13-.39.27-.8.42-1.18.25-.73.52-1.46.81-2.17.12-.33.25-.67.38-1,.24-.62.48-1.25.73-1.86.06-.13.11-.27.17-.4.57-1.42,1.17-2.83,1.79-4.2.26-.62.55-1.24.83-1.84s.42-.94.64-1.38c.31-.69.64-1.38,1-2s.65-1.36,1-2,.68-1.32,1-2c.68-1.3,1.38-2.57,2.12-3.81,0,0,0-.1.08-.13l.2-.34c.29-.51.57-1,.89-1.49s.75-1.26,1.14-1.87.77-1.23,1.19-1.83.63-1,1-1.46l.1-.14.39-.57c.54-.8,1.11-1.59,1.7-2.39h0c.17-.23.35-.48.54-.71a1.2,1.2,0,0,1,.15-.21c.26-.37.55-.73.83-1.11.51-.68,1-1.32,1.56-2s1-1.26,1.55-1.87l.08-.11.7-.82.19-.2c.5-.58,1-1.15,1.54-1.73l.88-.93c.3-.32.58-.63.89-.93.91-1,1.85-1.88,2.79-2.78l1.63-1.51c.21-.18.43-.37.63-.56.67-.59,1.33-1.17,2-1.71s1.56-1.3,2.36-1.92,1.39-1.06,2.11-1.57c.19-.15.38-.29.58-.43l2.2-1.52,2.38-1.54c.8-.51,1.62-1,2.44-1.46s1.38-.77,2.08-1.15l.54-.29c.58-.31,1.16-.61,1.74-.88l.55-.26.85-.42c.58-.29,1.18-.56,1.77-.81l.92-.39a2.91,2.91,0,0,1,.4-.17c.56-.24,1.13-.49,1.7-.7.38-.14.77-.31,1.16-.43s1-.36,1.44-.52l.23-.08c.23-.1.44-.17.67-.24.39-.14.79-.26,1.18-.38l2.32-.73,1.25-.34,1.24-.35c.4-.1.82-.21,1.23-.3s.93-.23,1.39-.32c.7-.18,1.42-.31,2.13-.46l.27,0,.14,0,1-.2.35,0c.4-.08.82-.14,1.23-.21l.92-.13c.32-.06.64-.1,1-.14a93.58,93.58,0,0,1,13.1-.89A68.7,68.7,0,0,1,184.26,337l.24.11c.12,0,.25.11.37.14a76.75,76.75,0,0,1,7.74,3.84c20.46,11.59,37.06,33.24,48.51,60.45,1.21,2.88,2.32,5.76,3.42,8.77a.79.79,0,0,1,0,.13c.06.15.14.38.21.55s.23.49.31.73a1.63,1.63,0,0,1,.08.26l.07.18c.38,1.06.59,1.74,1,2.8a.24.24,0,0,0,0,.07c.38,1.14.75,2.34,1.13,3.5,1,3,1.8,6,2.64,9.1.36,1.36.71,2.72,1,4.11s.55,2.54.87,4c0,.07.14.35.15.39.32,1.44.47,2.42.76,3.85l.21.72c.26,1.29.51,2.6.75,3.91.06.3.12.59.16.9.25,1.34.46,2.64.67,4v.13c.5,3.12.92,6.06,1.29,9.25a2.15,2.15,0,0,1,0,.26q.23,2.3.43,4.54c0,.43.09.79.12,1.19s.1,1.07.13,1.61a.63.63,0,0,1,0,.16c.15,1.65.27,3.27.39,5,0,.1,0,.19,0,.3a.29.29,0,0,0,0,.11.63.63,0,0,0,0,.14.84.84,0,0,0,0,.17c0,.87.09,1.76.15,2.64,0,.45.06.94.08,1.4.17,1.86.31,3.68.47,5.56,0,.18,0,.28,0,.45l0,.18c0,.14,0,.24,0,.38,0,.64.11,1.33.15,2,.15,1.87.39,3.74.51,5.63,0,.42,0,.75,0,1.14,0,.21.06.43.07.63s0,.31,0,.48,0,.14,0,.19l0,.21c0,.32.06.49.08.78v.1c.06,1,.1,2,.15,2.9,1.55,33.58-1.38,61.13-9.49,73.85a22,22,0,0,1-2.87,3.7,12.21,12.21,0,0,1-8.69,4c2.7.32,7.66-.36,10.42-.61a36.72,36.72,0,0,0,3.78-4.31C261,559.78,264,531.93,262.39,497.19Z"/><path class="cls-32" d="M262.39,81.31c0,1-.1,2-.15,3v.1c0,.32,0,.65-.06,1v0s0,.07,0,.11c0,.19,0,.38,0,.57s0,.42,0,.62c0,.43,0,.83-.07,1.25-.12,2-.24,3.9-.4,5.82,0,.69-.1,1.37-.14,2,0,.13,0,.27,0,.4v.11l0,.51c-.17,2-.32,3.89-.5,5.81l-.07,1.45c-.06.9-.11,1.8-.14,2.7a.58.58,0,0,0,0,.14.33.33,0,0,0,0,.11.37.37,0,0,0,0,.12,2.46,2.46,0,0,1,0,.31c-.12,1.74-.24,3.46-.4,5.18a.2.2,0,0,1,0,.08c0,.56-.08,1.09-.13,1.64s-.08.83-.13,1.26c-.14,1.55-.29,3.15-.45,4.72a.2.2,0,0,1,0,.08c-.38,3.3-.85,6.57-1.37,9.81v0c-.21,1.4-.46,2.81-.73,4.2,0,.32-.1.63-.15.93-.25,1.36-.5,2.7-.77,4l0,.18c-.31,1.49-.62,3-1,4.45l0,.17q-.5,2.21-1,4.39c-.35,1.42-.7,2.82-1.07,4.22-.86,3.24-1.8,6.44-2.79,9.58-.39,1.2-.79,2.42-1.18,3.61a.11.11,0,0,1,0,.06c-.38,1.11-.75,2.21-1.14,3.31l0-.29a2.67,2.67,0,0,1-.1.29c-.1.25-.18.51-.27.75s-.11.32-.18.49-.06.15-.08.23C246.48,174,245.3,177,244,180c-11.84,28.15-29.22,50.44-50.39,62.42a77.13,77.13,0,0,1-8,4l-.38.17-.24.1a70.92,70.92,0,0,1-27.46,5.53,96.3,96.3,0,0,1-13.55-.93c-.33,0-.67-.08-1-.14l-.94-.15-1.27-.2a3.13,3.13,0,0,0-.36-.07l-1-.19-.14,0-.29-.06c-.74-.15-1.48-.3-2.2-.48-.48-.1-1-.2-1.44-.33s-.85-.2-1.27-.32-.86-.21-1.27-.35l-1.3-.37c-.81-.23-1.6-.48-2.41-.74-.4-.12-.81-.25-1.21-.4l-.69-.23c-.08,0-.15-.07-.23-.1-.51-.17-1-.36-1.5-.54l-1.19-.45c-.6-.23-1.18-.48-1.76-.71l-.42-.18-1-.42c-.61-.26-1.23-.55-1.83-.83-.3-.14-.58-.27-.87-.43s-.38-.18-.57-.27c-.61-.29-1.19-.59-1.8-.92a4.16,4.16,0,0,1-.55-.3c-.73-.38-1.44-.79-2.16-1.19s-1.7-1-2.52-1.51-1.66-1-2.47-1.59-1.54-1-2.29-1.57l-.6-.43q-1.11-.8-2.18-1.64c-.83-.64-1.64-1.3-2.44-2s-1.39-1.18-2.08-1.78l-.66-.58-1.69-1.56c-1-.94-1.94-1.89-2.88-2.87-.32-.31-.61-.63-.92-1l-.92-1c-.54-.57-1.07-1.17-1.58-1.77l-.2-.21-.73-.86-.08-.1c-.54-.63-1.07-1.29-1.6-1.93s-1.1-1.36-1.62-2.06c-.3-.38-.6-.76-.86-1.14a1.17,1.17,0,0,1-.17-.21c-.19-.25-.38-.5-.55-.75h0c-.62-.81-1.21-1.64-1.76-2.48a4.76,4.76,0,0,1-.4-.59,1,1,0,0,1-.11-.13c-.36-.49-.69-1-1-1.51s-.83-1.26-1.23-1.89-.81-1.29-1.18-1.94c-.33-.5-.63-1-.93-1.54-.07-.13-.13-.25-.2-.37a.25.25,0,0,1-.1-.13c-.76-1.29-1.49-2.61-2.19-3.94-.38-.68-.74-1.37-1.08-2.06s-.71-1.38-1-2.08-.7-1.4-1-2.12c-.23-.46-.45-1-.65-1.43-.3-.63-.6-1.27-.87-1.9-.64-1.43-1.25-2.88-1.85-4.34l-.17-.44c-.26-.62-.51-1.27-.76-1.92l-.39-1c-.3-.74-.57-1.49-.83-2.24-.14-.4-.3-.81-.43-1.23q-.41-1.07-.75-2.14c-.15-.43-.3-.84-.44-1.27-.26-.79-.51-1.56-.76-2.37-.2-.64-.4-1.27-.58-1.92-.1-.25-.17-.51-.24-.76-.23-.7-.42-1.4-.62-2.12s-.46-1.63-.68-2.44c-.18-.65-.36-1.3-.51-1.94-.08-.31-.17-.62-.24-.93-.14-.55-.27-1.09-.42-1.65-.23-1-.46-1.93-.7-2.92,0-.07,0-.15,0-.23-.29-1.25-.55-2.49-.81-3.75-.2-.9-.38-1.84-.57-2.77,0-.17-.06-.32-.1-.5-.07-.37-.13-.74-.21-1.11,0-.08,0-.18,0-.26-.17-.92-.33-1.84-.49-2.78q0-.2-.07-.43c-.21-1.19-.4-2.39-.6-3.62-.14-.87-.29-1.75-.39-2.62-.18-1.12-.32-2.25-.46-3.39-.12-.71-.2-1.43-.27-2.15v0c-.17-1.29-.31-2.59-.44-3.9-.13-1.06-.24-2.13-.31-3.2s-.21-2.24-.3-3.37-.18-2.24-.24-3.36-.13-2.14-.18-3.21c0-.13,0-.26,0-.38,0-1-.11-2-.14-3.06,0-.4,0-.81,0-1.21,0-.84-.06-1.68-.07-2.51,0-1.11,0-2.24-.06-3.34s0-2.24,0-3.36v-.33a156.64,156.64,0,0,1,2.08-28.45q.3-2,.64-4c.11-.63.23-1.27.35-1.9s.26-1.46.4-2.18L58,66.06c.2-1,.39-1.92.61-2.84.11-.52.21-1,.35-1.55.54-2.36,1.12-4.69,1.75-7,.14-.58.3-1.15.48-1.74s.36-1.29.56-1.92.45-1.52.69-2.3c.15-.51.32-1,.5-1.52l.25-.19C64.43,46.1,66,45,67.81,43.87c0,0,0,0,0,0s0,0,0,0c-.15.46-.33,1-.49,1.42,0,.07,0,.17-.07.23-.12.32-.23.65-.33,1s-.21.63-.32,1c-.3.88-.58,1.76-.86,2.65s-.46,1.48-.68,2.23-.37,1.21-.54,1.84-.32,1.13-.46,1.69c-.61,2.21-1.17,4.46-1.69,6.72-.12.5-.23,1-.33,1.5-.2.9-.39,1.82-.58,2.76L61.22,68c-.14.7-.27,1.39-.39,2.11s-.24,1.23-.33,1.86c-.23,1.28-.43,2.58-.63,3.89a152.64,152.64,0,0,0-2,27.51v.31c0,1.09,0,2.17,0,3.26s0,2.14.06,3.21c0,.82,0,1.62.07,2.44,0,.38,0,.79,0,1.18,0,1,.08,2,.13,2.94a3.6,3.6,0,0,0,0,.37c0,1,.11,2.07.18,3.12s.13,2.15.23,3.25.18,2.17.29,3.26.18,2.06.3,3.08q.2,1.89.43,3.78v0c.07.7.15,1.38.26,2.08.14,1.08.29,2.19.45,3.27.11.84.24,1.68.38,2.52q.27,1.77.57,3.5l.07.42c.15.9.31,1.8.48,2.69,0,.1,0,.17,0,.25.07.36.13.73.2,1.07,0,.17.06.32.1.5.18.89.36,1.8.55,2.68.25,1.21.51,2.42.79,3.62,0,.06,0,.14,0,.21.23,1,.45,1.89.68,2.82.13.55.26,1.06.4,1.59.06.3.14.59.23.89.15.63.32,1.25.5,1.89s.43,1.56.66,2.36.38,1.36.6,2c.07.25.14.51.23.74.18.62.37,1.25.57,1.86.24.79.48,1.52.74,2.3.13.4.27.82.42,1.23.23.69.46,1.39.73,2.07.13.39.27.8.42,1.18.25.73.52,1.46.81,2.17.12.33.25.67.38,1,.24.62.48,1.25.73,1.86.06.13.11.27.17.4.57,1.42,1.17,2.83,1.79,4.2.26.62.55,1.24.83,1.84s.42.94.64,1.38c.31.69.64,1.38,1,2s.65,1.36,1,2,.68,1.32,1,2c.68,1.3,1.38,2.57,2.12,3.81,0,0,0,.1.08.13l.2.34c.29.51.57,1,.89,1.49s.75,1.26,1.14,1.87.77,1.23,1.19,1.83.63,1,1,1.46l.1.14.39.57c.54.8,1.11,1.59,1.7,2.39h0c.17.23.35.48.54.71a1.2,1.2,0,0,0,.15.21c.26.37.55.73.83,1.11.51.68,1,1.32,1.56,2s1,1.26,1.55,1.87l.08.11.7.82.19.2c.5.58,1,1.15,1.54,1.73l.88.93c.3.32.58.63.89.93.91,1,1.85,1.88,2.79,2.78l1.63,1.51c.21.18.43.37.63.56.67.59,1.33,1.17,2,1.71s1.56,1.3,2.36,1.92,1.39,1.06,2.11,1.57c.19.15.38.29.58.43l2.2,1.52,2.38,1.54c.8.51,1.62,1,2.44,1.46s1.38.77,2.08,1.15l.54.29c.58.31,1.16.61,1.74.88l.55.26.85.42c.58.29,1.18.56,1.77.81l.92.39a2.91,2.91,0,0,0,.4.17c.56.24,1.13.49,1.7.7.38.14.77.31,1.16.43s1,.36,1.44.52l.23.08c.23.1.44.17.67.24.39.14.79.26,1.18.38l2.32.73,1.25.34,1.24.35c.4.1.82.21,1.23.3s.93.23,1.39.32c.7.18,1.42.31,2.13.46l.27,0,.14,0,1,.2.35,0c.4.08.82.14,1.23.21l.92.13c.32.06.64.1,1,.14a93.58,93.58,0,0,0,13.1.89,68.7,68.7,0,0,0,26.54-5.33l.24-.11c.12,0,.25-.11.37-.14a76.75,76.75,0,0,0,7.74-3.84c20.46-11.59,37.06-33.24,48.51-60.45,1.21-2.88,2.32-5.76,3.42-8.77a.79.79,0,0,0,0-.13c.06-.15.14-.38.21-.55s.23-.49.31-.73a1.63,1.63,0,0,0,.08-.26l.07-.18c.38-1.06.59-1.74,1-2.8a.24.24,0,0,1,0-.07c.38-1.14.75-2.34,1.13-3.5,1-3,1.8-6,2.64-9.1.36-1.36.71-2.72,1-4.11s.55-2.54.87-4c0-.07.14-.35.15-.39.32-1.44.47-2.42.76-3.85l.21-.72c.26-1.29.51-2.6.75-3.91.06-.3.12-.59.16-.9.25-1.34.46-2.64.67-4v-.13c.5-3.12.92-6.06,1.29-9.25a2.15,2.15,0,0,0,0-.26q.23-2.3.43-4.54c0-.43.09-.79.12-1.19s.1-1.07.13-1.61a.63.63,0,0,0,0-.16c.15-1.65.27-3.27.39-5,0-.1,0-.19,0-.3a.29.29,0,0,1,0-.11.63.63,0,0,1,0-.14.84.84,0,0,1,0-.17c0-.87.09-1.76.15-2.64,0-.45.06-.94.08-1.4.17-1.86.31-3.68.47-5.56,0-.18,0-.28,0-.45l0-.18c0-.14,0-.24,0-.38,0-.64.11-1.33.15-2,.15-1.87.39-3.74.51-5.63,0-.42,0-.75,0-1.14,0-.21.06-.43.07-.63s0-.31,0-.48,0-.14,0-.19l0-.21c0-.32.06-.49.08-.78v-.1c.06-1,.1-2,.15-2.9,1.55-33.58-1.38-61.13-9.49-73.85A22,22,0,0,0,246.57,4a12.21,12.21,0,0,0-8.69-4c2.7-.32,9.06.5,11.82.75a26.86,26.86,0,0,1,2.81,4C260.9,18,264,46.58,262.39,81.31Z"/><path class="cls-33" d="M481.21,424.67c-.69.21-1.38.4-2.07.6s-1.14.32-1.71.46l-.44.12-1.68.42a103.69,103.69,0,0,1-10.47,2c-.56.08-1.11.15-1.66.21s-1.2.14-1.8.2c-1.91.2-3.81.33-5.69.39-.38,0-.76,0-1.14,0l-1.86,0-3.36,0-1.48,0c-1.08,0-2.17,0-3.25-.08l-3.39-.17c-.61,0-1.21-.06-1.81-.11s-1.14-.06-1.71-.11l-2.07-.15-2.23-.19q-.93-.07-1.86-.18l-.3,0c-2.23-.23-4.45-.49-6.66-.77l-1.21-.17c-1.13-.15-2.26-.32-3.38-.5s-2.17-.35-3.24-.54c-.85-.14-1.68-.29-2.5-.45l-.75-.13q-1.09-.2-2.18-.43c-1.08-.2-2.17-.43-3.25-.67q-2-.43-3.89-.89c-1.08-.25-2.17-.51-3.24-.8-1.29-.32-2.56-.67-3.83-1l-1.46-.42c-.85-.23-1.68-.48-2.51-.73l-.77-.24q-1.7-.52-3.39-1.07l-.19-.06-1.19-.39-1.74-.6c-.69-.23-1.37-.48-2-.73-.43-.14-.85-.3-1.27-.46-.62-.21-1.24-.44-1.86-.69s-1-.37-1.52-.58-1.3-.49-1.94-.76-1.46-.58-2.19-.89c-.52-.21-1-.43-1.57-.67q-2.7-1.14-5.36-2.39l-1.43-.67-1.71-.83-1.38-.69c-.75-.37-1.49-.75-2.23-1.14s-1.21-.62-1.81-1c-.87-.45-1.73-.93-2.58-1.41s-1.89-1.07-2.82-1.62a4,4,0,0,1-.43-.25c-1-.57-1.94-1.16-2.91-1.75l-.25-.15c-1-.61-2-1.23-2.94-1.86t0,0c-1-.65-2.06-1.35-3.07-2l-.14-.1c-.85-.58-1.69-1.17-2.52-1.77-.27-.18-.54-.37-.8-.57l-2.14-1.57c-.93-.69-1.85-1.39-2.74-2.11-.46-.35-.9-.7-1.35-1.07q-3-2.36-5.75-4.87c-1.08-1-2.14-1.93-3.18-2.92l-.36-.35c-.58-.55-1.16-1.11-1.73-1.67-.39-.39-.79-.77-1.17-1.18q-2-1.95-3.81-4c-.54-.58-1.07-1.18-1.58-1.77s-1.06-1.19-1.56-1.8c-.35-.4-.69-.81-1-1.21-.19-.2-.36-.4-.52-.62l-.56-.68c-.32-.38-.63-.77-.93-1.17-.8-1-1.56-2-2.3-3q-.54-.68-1-1.39c-1.87-2.57-3.66-5.22-5.32-7.93-.37-.6-.74-1.19-1.1-1.8s-.71-1.21-1.06-1.82-.7-1.21-1-1.83c-.69-1.23-1.35-2.48-2-3.73h0c-.33-.63-.64-1.26-.94-1.89s-.62-1.26-.92-1.91-.6-1.29-.88-1.93-.57-1.3-.85-2c-.21-.49-.42-1-.62-1.48q-1.73-4.18-3.14-8.54c-.23-.68-.44-1.37-.66-2.06s-.42-1.38-.62-2.07q-.84-2.89-1.54-5.86c-.14-.55-.26-1.1-.38-1.66q-.27-1.16-.5-2.32c-.1-.45-.19-.9-.27-1.37-.36-1.86-.68-3.74-1-5.63-.1-.63-.18-1.26-.26-1.91s-.17-1.27-.24-1.92-.13-1.14-.19-1.71c0-.18,0-.36,0-.54-.06-.54-.12-1.07-.15-1.61s-.12-1.3-.15-2c-.1-1.31-.17-2.62-.23-3.94,0-.65-.06-1.32-.07-2,0-.49,0-1,0-1.49s0-1,0-1.44,0-.95,0-1.44,0-1,0-1.49c0-.67,0-1.33.07-2,.06-1.32.13-2.63.23-3.94,0-.65.1-1.31.15-2s.1-1.07.15-1.61c0-.18,0-.36,0-.54.06-.57.12-1.14.19-1.71s.14-1.29.24-1.92.17-1.27.26-1.91c.27-1.89.6-3.77,1-5.63.08-.46.18-.92.27-1.37q.23-1.16.5-2.32c.12-.56.24-1.11.38-1.66q.7-3,1.54-5.86c.2-.69.4-1.38.62-2.07s.43-1.38.66-2.06q1.41-4.36,3.14-8.54c.2-.5.4-1,.62-1.48.27-.65.55-1.3.85-2s.58-1.29.88-1.93.6-1.27.92-1.91.61-1.26.94-1.89h0c.63-1.25,1.29-2.5,2-3.73.33-.62.68-1.23,1-1.83s.69-1.21,1.06-1.82.73-1.2,1.1-1.8c1.67-2.72,3.45-5.36,5.32-7.93q.5-.71,1-1.39c.74-1,1.5-2,2.3-3,.3-.39.61-.79.93-1.17l.56-.68c.17-.21.33-.42.52-.62.32-.4.67-.81,1-1.21.5-.61,1-1.2,1.56-1.8s1-1.19,1.58-1.77q1.84-2,3.81-4c.38-.4.77-.79,1.17-1.18.57-.56,1.14-1.12,1.73-1.67l.36-.35c1-1,2.1-2,3.18-2.92q2.79-2.52,5.75-4.87c.44-.37.88-.73,1.35-1.07.89-.71,1.81-1.42,2.74-2.11L341,183.9c.26-.2.52-.39.8-.57.83-.61,1.68-1.19,2.52-1.77l.14-.1c1-.69,2-1.38,3.07-2t0,0c1-.63,2-1.25,2.94-1.86l.25-.15c1-.6,1.93-1.18,2.91-1.75a4,4,0,0,1,.43-.25c.93-.55,1.87-1.08,2.82-1.62s1.71-1,2.58-1.41c.6-.33,1.2-.66,1.81-1s1.48-.77,2.23-1.14l1.38-.69,1.71-.83,1.43-.67q2.66-1.25,5.36-2.39c.52-.24,1-.45,1.57-.67.73-.31,1.45-.61,2.19-.89s1.29-.52,1.94-.76,1-.4,1.52-.58,1.24-.48,1.86-.69c.43-.17.85-.32,1.27-.46.68-.25,1.36-.5,2-.73l1.74-.6,1.19-.39.19-.06q1.7-.55,3.39-1.07l.77-.24c.83-.25,1.67-.5,2.51-.73l1.46-.42c1.27-.36,2.55-.7,3.83-1,1.07-.29,2.16-.55,3.24-.8q1.93-.46,3.89-.89c1.08-.24,2.17-.46,3.25-.67q1.09-.23,2.18-.43l.75-.13c.82-.17,1.66-.31,2.5-.45,1.07-.19,2.16-.37,3.24-.54s2.25-.35,3.38-.5l1.21-.17c2.2-.29,4.43-.55,6.66-.77l.3,0q.93-.11,1.86-.18l2.23-.19,2.07-.15q.86-.07,1.71-.11c.6,0,1.2-.08,1.81-.11l3.39-.17c1.08,0,2.17-.07,3.25-.08l1.48,0,3.36,0,1.86,0c.38,0,.76,0,1.14,0,1.88.06,3.79.19,5.69.39.6.06,1.19.12,1.8.2s1.1.13,1.66.21a103.69,103.69,0,0,1,10.47,2l1.68.42.44.12q.86.21,1.71.46c.69.19,1.38.38,2.07.6s1.17.35,1.76.54c1.29.39,2.57.82,3.85,1.26-.14-.27-.3-.55-.45-.81a296,296,0,0,0-79.29-92h0q-2.13-1.64-4.29-3.24l-.23-.17A308,308,0,0,0,261.15,2.82a0,0,0,0,0,0,0c-1.55-.21-3.1-.42-4.66-.6l-.88-.11c-3.69-.45-7.41-.82-11.15-1.13-1.43-.12-2.87-.23-4.3-.32h-2.27l0,0a10.63,10.63,0,0,1,1.75.14,12.49,12.49,0,0,1,6.85,3.73,20.85,20.85,0,0,1,2.91,3.7c8.11,12.74,11.1,40.39,9.55,74,0,1-.1,1.91-.15,2.87v.1c0,.36,0,.73-.07,1.1,0,.18,0,.37,0,.55s0,.4,0,.61c0,.4,0,.8-.06,1.2-.12,1.89-.24,3.77-.39,5.63,0,.67-.1,1.32-.14,2,0,.13,0,.26,0,.39v.11l0,.49c-.15,1.89-.31,3.76-.48,5.62l-.07,1.41q-.09,1.3-.14,2.61a.58.58,0,0,0,0,.14,181,181,0,0,1,0,.21c0,.11,0,.21,0,.31-.12,1.68-.24,3.35-.39,5a.2.2,0,0,1,0,.08c0,.54-.08,1.06-.13,1.58s-.08.81-.13,1.23c-.13,1.49-.27,3-.43,4.57a.15.15,0,0,1,0,.07c-.37,3.19-.82,6.36-1.32,9.49v0a216.09,216.09,0,0,1-9.59,37.86l0-.29a2.68,2.68,0,0,1-.1.29c-.08.24-.17.49-.26.73-12.62,35.23-33.77,62.53-60.16,73.77a68.68,68.68,0,0,1-27.15,5.6,93.51,93.51,0,0,1-13.1-.89c-.32,0-.64-.08-1-.14s-.61-.1-.92-.14l-1.23-.2-.35-.06-1-.19-.14,0-.27-.06c-.71-.14-1.43-.29-2.13-.45q-.7-.14-1.39-.32l-1.23-.31c-.42-.11-.83-.21-1.24-.33l-1.25-.36c-.79-.23-1.55-.46-2.32-.71q-.59-.18-1.18-.39l-.67-.23-.23-.08c-.49-.17-1-.35-1.44-.52s-.77-.29-1.16-.44c-.57-.21-1.14-.45-1.7-.69l-.4-.17-.92-.4c-.6-.25-1.19-.52-1.77-.81-.29-.13-.57-.26-.85-.4s-.37-.18-.55-.27c-.58-.27-1.16-.57-1.74-.88a5.88,5.88,0,0,1-.54-.29c-.7-.37-1.39-.76-2.08-1.16s-1.64-1-2.44-1.46-1.6-1-2.38-1.54c-26.76-17.85-43.26-51.4-49.43-91.52-.14-.85-.27-1.69-.38-2.54-.17-1.08-.31-2.18-.45-3.27-.11-.69-.19-1.38-.26-2.08v0c-.15-1.25-.3-2.51-.43-3.77-.12-1-.23-2.06-.3-3.1s-.2-2.17-.29-3.26-.17-2.17-.23-3.25-.13-2.07-.18-3.11c0-.12,0-.25,0-.37,0-1-.1-2-.13-3,0-.39,0-.79,0-1.18q-.05-1.21-.07-2.43c0-1.07,0-2.16-.06-3.23s0-2.17,0-3.25V104a152.94,152.94,0,0,1,2-27.53c.2-1.3.4-2.6.63-3.89.1-.62.21-1.24.33-1.85s.25-1.42.39-2.11l.21-1.11c.19-.93.38-1.85.58-2.75.11-.5.21-1,.33-1.5q.79-3.41,1.69-6.74.21-.84.46-1.68T64.91,53q.32-1.11.68-2.21c.27-.89.56-1.77.86-2.66.11-.32.2-.64.32-1s.21-.64.33-1l.07-.23c.15-.46.33-1,.49-1.42,0,0,0,0,0,0s0,0,0,0c-1.85,1.1-3.38,2.23-4.67,3.17-3.85,2.83-7.57,5.73-11.23,8.69C37.25,68.08,24,80.56,10.06,92.83q-3.91,3.48-7.92,6.91A5.79,5.79,0,0,0,0,104a18.91,18.91,0,0,0,.2,3.36c1.87,16.7,4.12,33.34,5.7,50.06q4.54,48.21,5.85,96.61.45,17.74.51,35.48T11.77,325q-1.23,48.37-5.85,96.61C4.34,438.35,2.09,455,.22,471.7a18.91,18.91,0,0,0-.2,3.36,5.79,5.79,0,0,0,2.12,4.28q4,3.43,7.92,6.91C24,498.51,37.25,511,51.79,522.72c3.66,3,7.38,5.86,11.23,8.69,1.29.94,2.82,2.07,4.67,3.17,0,0,0,0,0,0s0,0,0,0c-.15-.46-.33-1-.49-1.42l-.07-.23c-.12-.32-.23-.64-.33-1s-.21-.63-.32-1c-.3-.88-.58-1.76-.86-2.66q-.36-1.11-.68-2.21-.29-.91-.54-1.86t-.46-1.68q-.91-3.32-1.69-6.74c-.12-.5-.23-1-.33-1.5-.2-.91-.39-1.82-.58-2.75l-.21-1.11q-.21-1-.39-2.11c-.12-.61-.24-1.23-.33-1.85-.23-1.3-.43-2.6-.63-3.89a152.94,152.94,0,0,1-2-27.53v-.32c0-1.08,0-2.17,0-3.25s0-2.16.06-3.23q0-1.21.07-2.43c0-.39,0-.79,0-1.18,0-1,.08-2,.13-3,0-.12,0-.25,0-.37q.07-1.55.18-3.11c.06-1.08.13-2.17.23-3.25s.18-2.18.29-3.26.18-2.07.3-3.1c.13-1.26.27-2.52.43-3.77v0c.07-.7.15-1.39.26-2.08.14-1.1.29-2.19.45-3.27.11-.85.24-1.69.38-2.54,6.17-40.12,22.67-73.67,49.43-91.52.79-.52,1.58-1,2.38-1.54s1.62-1,2.44-1.46,1.38-.79,2.08-1.16a5.88,5.88,0,0,1,.54-.29c.58-.31,1.16-.61,1.74-.88.18-.1.36-.19.55-.27s.56-.27.85-.4c.58-.29,1.18-.56,1.77-.81l.92-.4.4-.17c.56-.24,1.13-.48,1.7-.69.38-.15.77-.31,1.16-.44s1-.36,1.44-.52l.23-.08.67-.23q.59-.21,1.18-.39c.77-.25,1.54-.49,2.32-.71l1.25-.36c.4-.12.82-.23,1.24-.33l1.23-.31q.7-.18,1.39-.32c.7-.17,1.42-.31,2.13-.45l.27-.06.14,0,1-.19.35-.06,1.23-.2c.31,0,.61-.11.92-.14s.64-.1,1-.14a93.51,93.51,0,0,1,13.1-.89,68.68,68.68,0,0,1,27.15,5.6c26.39,11.24,47.54,38.55,60.16,73.77.1.24.18.49.26.73a2.68,2.68,0,0,1,.1.29l0-.29a216.09,216.09,0,0,1,9.59,37.86v0c.5,3.13,1,6.3,1.32,9.49a.15.15,0,0,1,0,.07c.15,1.52.3,3.08.43,4.57,0,.42.1.82.13,1.23s.1,1,.13,1.58a.2.2,0,0,1,0,.08c.15,1.66.27,3.32.39,5,0,.1,0,.2,0,.31a181,181,0,0,1,0,.21.58.58,0,0,0,0,.14q.05,1.3.14,2.61l.07,1.41c.17,1.86.32,3.73.48,5.62l0,.49v.11c0,.13,0,.26,0,.39,0,.65.11,1.31.14,2,.15,1.86.27,3.74.39,5.63,0,.4,0,.8.06,1.2,0,.2,0,.4,0,.61s0,.37,0,.55c0,.37,0,.74.07,1.1v.1c.06,1,.11,1.92.15,2.87,1.55,33.61-1.44,61.26-9.55,74a20.85,20.85,0,0,1-2.91,3.7,12.49,12.49,0,0,1-6.85,3.73,10.63,10.63,0,0,1-1.75.14l0,0h2.27c1.43-.1,2.87-.2,4.3-.32,3.74-.31,7.45-.68,11.15-1.13l.88-.11c1.56-.18,3.11-.38,4.66-.6a0,0,0,0,0,0,0,308,308,0,0,0,141.39-57.2l.23-.17q2.16-1.59,4.29-3.24h0a296,296,0,0,0,79.29-92c.15-.26.31-.54.45-.81-1.27.44-2.56.87-3.85,1.26C482.38,424.32,481.79,424.5,481.21,424.67Z"/><path class="cls-34" d="M482.4,424.67c-.69.21-1.38.4-2.07.6s-1.14.32-1.71.46l-.44.12-1.68.42a103.69,103.69,0,0,1-10.47,2c-.56.08-1.11.15-1.66.21s-1.2.14-1.8.2c-1.91.2-3.81.33-5.69.39-.38,0-.76,0-1.14,0l-1.86,0-3.36,0-1.48,0c-1.08,0-2.17,0-3.25-.08l-3.39-.17c-.61,0-1.21-.06-1.81-.11s-1.14-.06-1.71-.11l-2.07-.15-2.23-.19q-.93-.07-1.86-.18l-.3,0c-2.23-.23-4.45-.49-6.66-.77l-1.21-.17c-1.13-.15-2.26-.32-3.38-.5s-2.17-.35-3.24-.54c-.85-.14-1.68-.29-2.5-.45l-.75-.13q-1.09-.2-2.18-.43c-1.08-.2-2.17-.43-3.25-.67q-2-.43-3.89-.89c-1.08-.25-2.17-.51-3.24-.8-1.29-.32-2.56-.67-3.83-1l-1.46-.42c-.85-.23-1.68-.48-2.51-.73l-.77-.24q-1.7-.52-3.39-1.07l-.19-.06-1.19-.39-1.74-.6c-.69-.23-1.37-.48-2-.73-.43-.14-.85-.3-1.27-.46-.62-.21-1.24-.44-1.86-.69s-1-.37-1.52-.58-1.3-.49-1.94-.76-1.46-.58-2.19-.89c-.52-.21-1-.43-1.57-.67q-2.7-1.14-5.36-2.39l-1.43-.67-1.71-.83-1.38-.69c-.75-.37-1.49-.75-2.23-1.14s-1.21-.62-1.81-1c-.87-.45-1.73-.93-2.58-1.41s-1.89-1.07-2.82-1.62a4,4,0,0,1-.43-.25c-1-.57-1.94-1.16-2.91-1.75l-.25-.15c-1-.61-2-1.23-2.94-1.86t0,0c-1-.65-2.06-1.35-3.07-2l-.14-.1c-.85-.58-1.69-1.17-2.52-1.77-.27-.18-.54-.37-.8-.57L340,393.6c-.93-.69-1.85-1.39-2.74-2.11-.46-.35-.9-.7-1.35-1.07q-3-2.36-5.75-4.87c-1.08-1-2.14-1.93-3.18-2.92l-.36-.35c-.58-.55-1.16-1.11-1.73-1.67-.39-.39-.79-.77-1.17-1.18q-2-1.95-3.81-4c-.54-.58-1.07-1.18-1.58-1.77s-1.06-1.19-1.56-1.8c-.35-.4-.69-.81-1-1.21-.19-.2-.36-.4-.52-.62l-.56-.68c-.32-.38-.63-.77-.93-1.17-.8-1-1.56-2-2.3-3q-.54-.68-1-1.39c-1.87-2.57-3.66-5.22-5.32-7.93-.37-.6-.74-1.19-1.1-1.8s-.71-1.21-1.06-1.82-.7-1.21-1-1.83c-.69-1.23-1.35-2.48-2-3.73h0c-.33-.63-.64-1.26-.94-1.89s-.62-1.26-.92-1.91-.6-1.29-.88-1.93-.57-1.3-.85-2c-.21-.49-.42-1-.62-1.48q-1.73-4.18-3.14-8.54c-.23-.68-.44-1.37-.66-2.06s-.42-1.38-.62-2.07Q290.5,322,289.8,319c-.14-.55-.26-1.1-.38-1.66q-.27-1.16-.5-2.32c-.1-.45-.19-.9-.27-1.37-.36-1.86-.68-3.74-1-5.63-.1-.63-.18-1.26-.26-1.91s-.17-1.27-.24-1.92-.13-1.14-.19-1.71c0-.18,0-.36,0-.54-.06-.54-.12-1.07-.15-1.61s-.12-1.3-.15-2c-.1-1.31-.17-2.62-.23-3.94,0-.65-.06-1.32-.07-2,0-.49,0-1,0-1.49s0-1,0-1.44,0-.95,0-1.44,0-1,0-1.49c0-.67,0-1.33.07-2,.06-1.32.13-2.63.23-3.94,0-.65.1-1.31.15-2s.1-1.07.15-1.61c0-.18,0-.36,0-.54.06-.57.12-1.14.19-1.71s.14-1.29.24-1.92.17-1.27.26-1.91c.27-1.89.6-3.77,1-5.63.08-.46.18-.92.27-1.37q.23-1.16.5-2.32c.12-.56.24-1.11.38-1.66q.7-3,1.54-5.86c.2-.69.4-1.38.62-2.07s.43-1.38.66-2.06q1.41-4.36,3.14-8.54c.2-.5.4-1,.62-1.48.27-.65.55-1.3.85-2s.58-1.29.88-1.93.6-1.27.92-1.91.61-1.26.94-1.89h0c.63-1.25,1.29-2.5,2-3.73.33-.62.68-1.23,1-1.83s.69-1.21,1.06-1.82.73-1.2,1.1-1.8c1.67-2.72,3.45-5.36,5.32-7.93q.5-.71,1-1.39c.74-1,1.5-2,2.3-3,.3-.39.61-.79.93-1.17l.56-.68c.17-.21.33-.42.52-.62.32-.4.67-.81,1-1.21.5-.61,1-1.2,1.56-1.8s1-1.19,1.58-1.77q1.84-2,3.81-4c.38-.4.77-.79,1.17-1.18.57-.56,1.14-1.12,1.73-1.67l.36-.35c1-1,2.1-2,3.18-2.92q2.79-2.52,5.75-4.87c.44-.37.88-.73,1.35-1.07.89-.71,1.81-1.42,2.74-2.11l2.14-1.57c.26-.2.52-.39.8-.57.83-.61,1.68-1.19,2.52-1.77l.14-.1c1-.69,2-1.38,3.07-2t0,0c1-.63,2-1.25,2.94-1.86l.25-.15c1-.6,1.93-1.18,2.91-1.75a4,4,0,0,1,.43-.25c.93-.55,1.87-1.08,2.82-1.62s1.71-1,2.58-1.41c.6-.33,1.2-.66,1.81-1s1.48-.77,2.23-1.14l1.38-.69,1.71-.83,1.43-.67q2.66-1.25,5.36-2.39c.52-.24,1-.45,1.57-.67.73-.31,1.45-.61,2.19-.89s1.29-.52,1.94-.76,1-.4,1.52-.58,1.24-.48,1.86-.69c.43-.17.85-.32,1.27-.46.68-.25,1.36-.5,2-.73l1.74-.6,1.19-.39.19-.06q1.7-.55,3.39-1.07l.77-.24c.83-.25,1.67-.5,2.51-.73l1.46-.42c1.27-.36,2.55-.7,3.83-1,1.07-.29,2.16-.55,3.24-.8q1.93-.46,3.89-.89c1.08-.24,2.17-.46,3.25-.67q1.09-.23,2.18-.43l.75-.13c.82-.17,1.66-.31,2.5-.45,1.07-.19,2.16-.37,3.24-.54s2.25-.35,3.38-.5l1.21-.17c2.2-.29,4.43-.55,6.66-.77l.3,0q.93-.11,1.86-.18l2.23-.19,2.07-.15q.86-.07,1.71-.11c.6,0,1.2-.08,1.81-.11l3.39-.17c1.08,0,2.17-.07,3.25-.08l1.48,0,3.36,0,1.86,0c.38,0,.76,0,1.14,0,1.88.06,3.79.19,5.69.39.6.06,1.19.12,1.8.2s1.1.13,1.66.21a103.69,103.69,0,0,1,10.47,2l1.68.42.44.12q.86.21,1.71.46c.69.19,1.38.38,2.07.6s1.17.35,1.76.54c1.29.39,2.57.82,3.85,1.26-.14-.27-.3-.55-.45-.81a296,296,0,0,0-79.29-92h0q-2.13-1.64-4.29-3.24l-.23-.17A308,308,0,0,0,262.34,2.82a0,0,0,0,0,0,0c-1.55-.21-3.1-.42-4.66-.6l-.88-.11c-3.69-.45-7.41-.82-11.15-1.13-1.43-.12-2.87-.23-4.3-.32H239l0,0a10.63,10.63,0,0,1,1.75.14,12.49,12.49,0,0,1,6.85,3.73,20.85,20.85,0,0,1,2.91,3.7c8.11,12.74,11.1,40.39,9.55,74,0,1-.1,1.91-.15,2.87v.1c0,.36,0,.73-.07,1.1,0,.18,0,.37,0,.55s0,.4,0,.61c0,.4,0,.8-.06,1.2-.12,1.89-.24,3.77-.39,5.63,0,.67-.1,1.32-.14,2,0,.13,0,.26,0,.39v.11l0,.49c-.15,1.89-.31,3.76-.48,5.62l-.07,1.41q-.09,1.3-.14,2.61a.58.58,0,0,0,0,.14,181,181,0,0,1,0,.21c0,.11,0,.21,0,.31-.12,1.68-.24,3.35-.39,5a.2.2,0,0,1,0,.08c0,.54-.08,1.06-.13,1.58s-.08.81-.13,1.23c-.13,1.49-.27,3-.43,4.57a.15.15,0,0,1,0,.07c-.37,3.19-.82,6.36-1.32,9.49v0a216.09,216.09,0,0,1-9.59,37.86l0-.29a2.68,2.68,0,0,1-.1.29c-.08.24-.17.49-.26.73-12.62,35.23-33.77,62.53-60.16,73.77a68.68,68.68,0,0,1-27.15,5.6,93.51,93.51,0,0,1-13.1-.89c-.32,0-.64-.08-1-.14s-.61-.1-.92-.14l-1.23-.2-.35-.06-1-.19-.14,0-.27-.06c-.71-.14-1.43-.29-2.13-.45q-.7-.14-1.39-.32l-1.23-.31c-.42-.11-.83-.21-1.24-.33l-1.25-.36c-.79-.23-1.55-.46-2.32-.71q-.59-.18-1.18-.39l-.67-.23-.23-.08c-.49-.17-1-.35-1.44-.52s-.77-.29-1.16-.44c-.57-.21-1.14-.45-1.7-.69l-.4-.17-.92-.4c-.6-.25-1.19-.52-1.77-.81-.29-.13-.57-.26-.85-.4s-.37-.18-.55-.27c-.58-.27-1.16-.57-1.74-.88a5.88,5.88,0,0,1-.54-.29c-.7-.37-1.39-.76-2.08-1.16s-1.64-1-2.44-1.46-1.6-1-2.38-1.54c-26.76-17.85-43.26-51.4-49.43-91.52-.14-.85-.27-1.69-.38-2.54-.17-1.08-.31-2.18-.45-3.27-.11-.69-.19-1.38-.26-2.08v0c-.15-1.25-.3-2.51-.43-3.77-.12-1-.23-2.06-.3-3.1s-.2-2.17-.29-3.26-.17-2.17-.23-3.25-.13-2.07-.18-3.11c0-.12,0-.25,0-.37,0-1-.1-2-.13-3,0-.39,0-.79,0-1.18Q59,112,59,110.79c0-1.07,0-2.16-.06-3.23s0-2.17,0-3.25V104a152.94,152.94,0,0,1,2-27.53c.2-1.3.4-2.6.63-3.89.1-.62.21-1.24.33-1.85s.25-1.42.39-2.11l.21-1.11c.19-.93.38-1.85.58-2.75.11-.5.21-1,.33-1.5q.79-3.41,1.69-6.74.21-.84.46-1.68T66.1,53q.32-1.11.68-2.21c.27-.89.56-1.77.86-2.66.11-.32.2-.64.32-1s.21-.64.33-1l.07-.23c.15-.46.33-1,.49-1.42,0,0,0,0,0,0s0,0,0,0c-1.85,1.1-3.38,2.23-4.67,3.17-3.85,2.83-7.57,5.73-11.23,8.69C38.44,68.08,25.17,80.56,11.25,92.83q-3.91,3.48-7.92,6.91A5.79,5.79,0,0,0,1.21,104a18.91,18.91,0,0,0,.2,3.36c1.87,16.7,4.12,33.34,5.7,50.06q4.54,48.21,5.85,96.61.45,17.74.51,35.48T13,325q-1.23,48.37-5.85,96.61C5.53,438.35,3.28,455,1.41,471.7a18.91,18.91,0,0,0-.2,3.36,5.79,5.79,0,0,0,2.12,4.28q4,3.43,7.92,6.91C25.17,498.51,38.44,511,53,522.72c3.66,3,7.38,5.86,11.23,8.69,1.29.94,2.82,2.07,4.67,3.17,0,0,0,0,0,0s0,0,0,0c-.15-.46-.33-1-.49-1.42l-.07-.23c-.12-.32-.23-.64-.33-1s-.21-.63-.32-1c-.3-.88-.58-1.76-.86-2.66q-.36-1.11-.68-2.21-.29-.91-.54-1.86t-.46-1.68q-.91-3.32-1.69-6.74c-.12-.5-.23-1-.33-1.5-.2-.91-.39-1.82-.58-2.75l-.21-1.11q-.21-1-.39-2.11c-.12-.61-.24-1.23-.33-1.85-.23-1.3-.43-2.6-.63-3.89a152.94,152.94,0,0,1-2-27.53v-.32c0-1.08,0-2.17,0-3.25s0-2.16.06-3.23q0-1.21.07-2.43c0-.39,0-.79,0-1.18,0-1,.08-2,.13-3,0-.12,0-.25,0-.37q.07-1.55.18-3.11c.06-1.08.13-2.17.23-3.25s.18-2.18.29-3.26.18-2.07.3-3.1c.13-1.26.27-2.52.43-3.77v0c.07-.7.15-1.39.26-2.08.14-1.1.29-2.19.45-3.27.11-.85.24-1.69.38-2.54,6.17-40.12,22.67-73.67,49.43-91.52.79-.52,1.58-1,2.38-1.54s1.62-1,2.44-1.46,1.38-.79,2.08-1.16a5.88,5.88,0,0,1,.54-.29c.58-.31,1.16-.61,1.74-.88.18-.1.36-.19.55-.27s.56-.27.85-.4c.58-.29,1.18-.56,1.77-.81l.92-.4.4-.17c.56-.24,1.13-.48,1.7-.69.38-.15.77-.31,1.16-.44s1-.36,1.44-.52l.23-.08.67-.23q.59-.21,1.18-.39c.77-.25,1.54-.49,2.32-.71l1.25-.36c.4-.12.82-.23,1.24-.33l1.23-.31q.7-.18,1.39-.32c.7-.17,1.42-.31,2.13-.45l.27-.06.14,0,1-.19.35-.06,1.23-.2c.31,0,.61-.11.92-.14s.64-.1,1-.14a93.51,93.51,0,0,1,13.1-.89,68.68,68.68,0,0,1,27.15,5.6c26.39,11.24,47.54,38.55,60.16,73.77.1.24.18.49.26.73a2.68,2.68,0,0,1,.1.29l0-.29A216.09,216.09,0,0,1,256,449.42v0c.5,3.13,1,6.3,1.32,9.49a.15.15,0,0,1,0,.07c.15,1.52.3,3.08.43,4.57,0,.42.1.82.13,1.23s.1,1,.13,1.58a.2.2,0,0,1,0,.08c.15,1.66.27,3.32.39,5,0,.1,0,.2,0,.31a181,181,0,0,1,0,.21.58.58,0,0,0,0,.14q.05,1.3.14,2.61l.07,1.41c.17,1.86.32,3.73.48,5.62l0,.49v.11c0,.13,0,.26,0,.39,0,.65.11,1.31.14,2,.15,1.86.27,3.74.39,5.63,0,.4,0,.8.06,1.2,0,.2,0,.4,0,.61s0,.37,0,.55c0,.37,0,.74.07,1.1v.1c.06,1,.11,1.92.15,2.87,1.55,33.61-1.44,61.26-9.55,74a20.85,20.85,0,0,1-2.91,3.7,12.49,12.49,0,0,1-6.85,3.73,10.63,10.63,0,0,1-1.75.14l0,0h2.27c1.43-.1,2.87-.2,4.3-.32,3.74-.31,7.45-.68,11.15-1.13l.88-.11c1.56-.18,3.11-.38,4.66-.6a0,0,0,0,0,0,0,308,308,0,0,0,141.39-57.2l.23-.17q2.16-1.59,4.29-3.24h0a296,296,0,0,0,79.29-92c.15-.26.31-.54.45-.81-1.27.44-2.56.87-3.85,1.26C483.57,424.32,483,424.5,482.4,424.67Z"/><path class="cls-35" d="M146.88,401q1.25,12.24,2.76,24.47a97.74,97.74,0,0,1-43.95,10.55c-39.95,0-75.18-24.71-96.14-62.37C12,339.63,12.26,302.39,12.26,295c0-7.78-.71-48.75-1.9-84.1,21-36.85,55.87-60.94,95.33-60.94a97.59,97.59,0,0,1,43.95,10.55q-1.52,12.24-2.76,24.48-3,30.4-4.43,60.82-1,23.6-1.16,47.21.11,23.6,1.16,47.18Q143.81,370.66,146.88,401Z"/></g></g></svg>