<svg xmlns="http://www.w3.org/2000/svg" xmlns:xlink="http://www.w3.org/1999/xlink" viewBox="0 0 510.18 318.83">
  <defs>
    <style>
      .cls-1 {
        fill: none;
      }

      .cls-2 {
        isolation: isolate;
      }

      .cls-3 {
        fill: #1973a5;
      }

      .cls-4 {
        fill: #2fb9ff;
      }

      .cls-5 {
        fill: #0063a8;
      }

      .cls-49, .cls-6 {
        fill: #fff;
      }

      .cls-6 {
        stroke: #000;
        stroke-miterlimit: 10;
        opacity: 0.72;
      }

      .cls-7, .cls-8, .cls-9 {
        mix-blend-mode: multiply;
      }

      .cls-7 {
        fill: url(#linear-gradient);
      }

      .cls-8 {
        fill: url(#linear-gradient-2);
      }

      .cls-9 {
        opacity: 0.67;
        fill: url(#linear-gradient-3);
      }

      .cls-10 {
        clip-path: url(#clip-path);
      }

      .cls-11 {
        fill: #2d2d2d;
      }

      .cls-12 {
        fill: #2e2e2e;
      }

      .cls-13 {
        fill: #2f2f2f;
      }

      .cls-14 {
        fill: #303030;
      }

      .cls-15 {
        fill: #313131;
      }

      .cls-16 {
        fill: #323232;
      }

      .cls-17 {
        fill: #333;
      }

      .cls-18 {
        fill: #343434;
      }

      .cls-19 {
        fill: #353535;
      }

      .cls-20 {
        fill: #363636;
      }

      .cls-21 {
        fill: #373737;
      }

      .cls-22 {
        fill: #383838;
      }

      .cls-23 {
        fill: #393939;
      }

      .cls-24 {
        fill: #3a3a3a;
      }

      .cls-25 {
        fill: #3b3b3b;
      }

      .cls-26 {
        fill: #3c3c3c;
      }

      .cls-27 {
        fill: #3d3d3d;
      }

      .cls-28 {
        fill: #3e3e3e;
      }

      .cls-29 {
        fill: #404040;
      }

      .cls-30 {
        fill: #414141;
      }

      .cls-31 {
        fill: #424242;
      }

      .cls-32 {
        fill: #434343;
      }

      .cls-33 {
        fill: #444;
      }

      .cls-34 {
        fill: #454545;
      }

      .cls-35 {
        fill: #464646;
      }

      .cls-36 {
        fill: #474747;
      }

      .cls-37 {
        fill: #484848;
      }

      .cls-38 {
        fill: #494949;
      }

      .cls-39 {
        fill: #4a4a4a;
      }

      .cls-40 {
        fill: #4b4b4b;
      }

      .cls-41 {
        fill: #4c4c4c;
      }

      .cls-42 {
        fill: #4d4d4d;
      }

      .cls-43 {
        fill: #4e4e4e;
      }

      .cls-44 {
        fill: #4f4f4f;
      }

      .cls-45 {
        fill: #505050;
      }

      .cls-46 {
        fill: #515151;
      }

      .cls-47 {
        fill: #898989;
      }

      .cls-48 {
        fill: #279dff;
      }

      .cls-50 {
        fill: #85ebff;
      }
    </style>
    <linearGradient id="linear-gradient" x1="6.27" y1="249" x2="117.59" y2="249" gradientUnits="userSpaceOnUse">
      <stop offset="0.01" stop-opacity="0.1"/>
      <stop offset="1"/>
    </linearGradient>
    <linearGradient id="linear-gradient-2" x1="280.34" y1="296.54" x2="450.47" y2="296.54" gradientUnits="userSpaceOnUse">
      <stop offset="0" stop-opacity="0.1"/>
      <stop offset="1"/>
    </linearGradient>
    <linearGradient id="linear-gradient-3" x1="258.12" y1="265.95" x2="498.27" y2="265.95" gradientUnits="userSpaceOnUse">
      <stop offset="0.1" stop-opacity="0.1"/>
      <stop offset="0.78"/>
    </linearGradient>
    <clipPath id="clip-path" transform="translate(3.27 -0.46)">
      <path class="cls-1" d="M15.61,104,74.8,275.71A9.47,9.47,0,0,0,85.26,282l352.45-56.81a9.47,9.47,0,0,0,7.7-7.12L485.59,52.41a9.47,9.47,0,0,0-10.26-11.64L23.5,91.54A9.47,9.47,0,0,0,15.61,104Z"/>
    </clipPath>
  </defs>
  <title>259 [Converted]333-01</title>
  <g class="cls-2">
    <g id="Layer_8" data-name="Layer 8">
      <polygon class="cls-3" points="6.27 237.19 117.59 271.56 79.57 226.43 6.27 237.19"/>
      <polygon class="cls-4" points="280.34 282.5 450.47 314.5 429.32 270.01 280.34 282.5"/>
      <polygon class="cls-5" points="383.46 304.93 395.29 303.93 405.44 268.64 390.98 268.42 383.46 304.93"/>
      <polygon class="cls-3" points="450.47 314.5 287.63 278.58 280.34 282.5 450.47 314.5"/>
      <path class="cls-6" d="M388.67,318.79c-.24,0-.49,0-.74,0L119.34,293a7.66,7.66,0,0,1-6.62-5.47l-64-218.82A7.66,7.66,0,0,1,55,59L462.53,1A7.66,7.66,0,0,1,471,10.46L396.1,313A7.66,7.66,0,0,1,388.67,318.79ZM126,278.29l256.86,24.59L453.45,17.8,65.9,72.94Z" transform="translate(3.27 -0.46)"/>
      <polygon class="cls-3" points="506.27 266.37 280.34 282.5 266.12 249.41 506.27 266.37"/>
      <polygon class="cls-7" points="6.27 237.19 117.59 271.56 79.57 226.43 6.27 237.19"/>
      <polygon class="cls-8" points="450.47 314.5 287.63 278.58 280.34 282.5 450.47 314.5"/>
      <polygon class="cls-9" points="506.27 266.37 280.34 282.5 266.12 249.41 506.27 266.37"/>
      <g class="cls-10">
        <rect class="cls-11" x="16.9" y="39.57" width="473.51" height="242.67"/>
        <path class="cls-11" d="M248.81,288.45C171,288.45,100.53,263.06,49.54,222a247.33,247.33,0,0,1-34.41-33.58A224.2,224.2,0,0,1,1,169.72H11.44V37.84H489.32V169.72h7.28a224.16,224.16,0,0,1-14.12,18.71A247.34,247.34,0,0,1,448.08,222C397.08,263.06,326.63,288.45,248.81,288.45Z" transform="translate(3.27 -0.46)"/>
        <path class="cls-12" d="M248.81,285.14c-76.68,0-146.11-25-196.36-65.48a243.7,243.7,0,0,1-33.91-33.09A220.85,220.85,0,0,1,4.63,168.14h6.81V37.84H489.32v130.3H493a220.85,220.85,0,0,1-13.91,18.43,243.7,243.7,0,0,1-33.91,33.09C394.91,260.11,325.49,285.14,248.81,285.14Z" transform="translate(3.27 -0.46)"/>
        <path class="cls-13" d="M248.81,281.82c-75.55,0-143.94-24.65-193.45-64.51-24.75-19.93-44.79-43.66-58.63-70H11.44V37.84H489.32V147.3h11.56c-13.84,26.35-33.88,50.08-58.63,70C392.74,257.17,324.35,281.82,248.81,281.82Z" transform="translate(3.27 -0.46)"/>
        <path class="cls-14" d="M248.81,278.51C174.4,278.51,107,254.22,58.27,215,33.89,195.34,14.16,172,.53,146H11.44V37.84H489.32V146h7.76c-13.64,26-33.37,49.33-57.75,69C390.58,254.22,323.21,278.51,248.81,278.51Z" transform="translate(3.27 -0.46)"/>
        <path class="cls-15" d="M248.81,275.19c-73.27,0-139.6-23.91-187.62-62.57-24-19.33-43.44-42.34-56.86-67.9h7.12V37.84H489.32V144.72h4c-13.43,25.56-32.86,48.57-56.86,67.9C388.41,251.28,322.08,275.19,248.81,275.19Z" transform="translate(3.27 -0.46)"/>
        <path class="cls-16" d="M248.81,271.87c-72.13,0-137.44-23.54-184.71-61.6-23.64-19-42.76-41.69-56-66.85h3.33V37.84H489.32V143.43h.17c-13.22,25.16-32.35,47.82-56,66.85C386.24,248.34,320.94,271.87,248.81,271.87Z" transform="translate(3.27 -0.46)"/>
        <path class="cls-17" d="M248.81,268.56c-71,0-135.27-23.17-181.8-60.63-23.26-18.73-42.09-41-55.1-65.79a177.53,177.53,0,0,1-15-38.85H11.44V37.84H489.32v65.45h11.36a177.53,177.53,0,0,1-15,38.85c-13,24.76-31.84,47.06-55.1,65.79C384.08,245.39,319.8,268.56,248.81,268.56Z" transform="translate(3.27 -0.46)"/>
        <path class="cls-18" d="M248.81,265.24c-69.86,0-133.1-22.8-178.88-59.65C47,187.16,28.51,165.22,15.71,140.85A174.69,174.69,0,0,1,1,102.62H11.44V37.84H489.32V61.57h12.46C501.79,174.06,388.52,265.24,248.81,265.24Z" transform="translate(3.27 -0.46)"/>
        <path class="cls-19" d="M248.81,261.93C111.36,261.93-.06,172.22-.06,61.57h11.5V37.84H489.32V61.57h8.34C497.67,172.22,386.25,261.93,248.81,261.93Z" transform="translate(3.27 -0.46)"/>
        <path class="cls-20" d="M248.81,258.61c-135.17,0-244.74-88.22-244.74-197h7.38V37.84H489.32V61.57h4.22C493.55,170.39,384,258.61,248.81,258.61Z" transform="translate(3.27 -0.46)"/>
        <path class="cls-21" d="M248.81,255.29C115.91,255.29,8.18,168.56,8.18,61.57a158.16,158.16,0,0,1,4.89-39V37.84H484.54V22.53a158.17,158.17,0,0,1,4.89,39C489.43,168.56,381.7,255.29,248.81,255.29Z" transform="translate(3.27 -0.46)"/>
        <path class="cls-22" d="M248.81,252C118.19,252,12.3,166.73,12.3,61.57A155.47,155.47,0,0,1,17.1,23.2V37.84h463.4V23.2a155.46,155.46,0,0,1,4.81,38.37C485.31,166.73,379.42,252,248.81,252Z" transform="translate(3.27 -0.46)"/>
        <path class="cls-23" d="M248.81,248.66c-128.34,0-232.39-83.76-232.39-187.09a152.75,152.75,0,0,1,4.72-37.71v14H476.47v-14a152.75,152.75,0,0,1,4.72,37.71C481.19,164.9,377.15,248.66,248.81,248.66Z" transform="translate(3.27 -0.46)"/>
        <path class="cls-24" d="M248.81,245.35c-126.07,0-228.27-82.28-228.27-183.78a150.05,150.05,0,0,1,4.64-37V37.84H472.44V24.53a150,150,0,0,1,4.64,37C477.07,163.07,374.88,245.35,248.81,245.35Z" transform="translate(3.27 -0.46)"/>
        <path class="cls-25" d="M248.81,242C125,242,24.66,161.24,24.66,61.57A147.33,147.33,0,0,1,29.21,25.2V37.84H468.4V25.2A147.35,147.35,0,0,1,473,61.57C473,161.24,372.6,242,248.81,242Z" transform="translate(3.27 -0.46)"/>
        <path class="cls-26" d="M248.81,238.72c-121.52,0-220-79.31-220-177.14a144.63,144.63,0,0,1,4.47-35.7v12H464.37v-12a144.63,144.63,0,0,1,4.47,35.7C468.84,159.41,370.33,238.72,248.81,238.72Z" transform="translate(3.27 -0.46)"/>
        <path class="cls-27" d="M248.81,235.4c-119.25,0-215.91-77.83-215.91-173.83a141.93,141.93,0,0,1,4.39-35v11.3H460.33V26.54a141.93,141.93,0,0,1,4.39,35C464.72,157.57,368.05,235.4,248.81,235.4Z" transform="translate(3.27 -0.46)"/>
        <path class="cls-28" d="M248.81,232.08C131.83,232.08,37,155.74,37,61.57a139.22,139.22,0,0,1,4.3-34.36V37.84h415V27.21a139.21,139.21,0,0,1,4.3,34.36C460.6,155.74,365.78,232.08,248.81,232.08Z" transform="translate(3.27 -0.46)"/>
        <path class="cls-29" d="M248.81,228.77c-114.7,0-207.68-74.86-207.68-167.2a136.51,136.51,0,0,1,4.22-33.7v10H452.26v-10a136.52,136.52,0,0,1,4.22,33.7C456.48,153.91,363.5,228.77,248.81,228.77Z" transform="translate(3.27 -0.46)"/>
        <path class="cls-30" d="M248.81,225.45c-112.42,0-203.56-73.37-203.56-163.88a133.8,133.8,0,0,1,4.14-33v9.3H448.23v-9.3a133.8,133.8,0,0,1,4.14,33C452.36,152.08,361.23,225.45,248.81,225.45Z" transform="translate(3.27 -0.46)"/>
        <path class="cls-31" d="M248.81,222.14c-110.15,0-199.44-71.89-199.44-160.57a131.1,131.1,0,0,1,4.05-32.36v8.63H444.19V29.21a131.1,131.1,0,0,1,4.05,32.36C448.24,150.25,359,222.14,248.81,222.14Z" transform="translate(3.27 -0.46)"/>
        <path class="cls-32" d="M248.81,218.82c-107.87,0-195.32-70.4-195.32-157.25a128.39,128.39,0,0,1,4-31.69v8h382.7v-8a128.38,128.38,0,0,1,4,31.69C444.13,148.42,356.68,218.82,248.81,218.82Z" transform="translate(3.27 -0.46)"/>
        <path class="cls-33" d="M248.81,215.51c-105.6,0-191.2-68.92-191.2-153.93a125.68,125.68,0,0,1,3.88-31v7.29H436.12V30.55a125.69,125.69,0,0,1,3.88,31C440,146.59,354.4,215.51,248.81,215.51Z" transform="translate(3.27 -0.46)"/>
        <path class="cls-34" d="M248.81,212.19c-103.32,0-187.08-67.43-187.08-150.62a123,123,0,0,1,3.8-30.35v6.62H432.09V31.22a123,123,0,0,1,3.8,30.35C435.89,144.76,352.13,212.19,248.81,212.19Z" transform="translate(3.27 -0.46)"/>
        <path class="cls-35" d="M248.81,208.87c-101,0-183-65.95-183-147.3a120.27,120.27,0,0,1,3.72-29.69v6H428.05v-6a120.27,120.27,0,0,1,3.72,29.69C431.77,142.92,349.85,208.87,248.81,208.87Z" transform="translate(3.27 -0.46)"/>
        <path class="cls-36" d="M248.81,205.56C150,205.56,70,141.09,70,61.57a117.57,117.57,0,0,1,3.63-29v5.29H424V32.55a117.55,117.55,0,0,1,3.63,29C427.65,141.09,347.58,205.56,248.81,205.56Z" transform="translate(3.27 -0.46)"/>
        <path class="cls-37" d="M248.81,202.24c-96.5,0-174.73-63-174.73-140.67a114.85,114.85,0,0,1,3.55-28.35v4.62H420V33.22a114.86,114.86,0,0,1,3.55,28.35C423.53,139.26,345.31,202.24,248.81,202.24Z" transform="translate(3.27 -0.46)"/>
        <path class="cls-38" d="M248.81,198.93c-94.22,0-170.61-61.5-170.61-137.35a112.14,112.14,0,0,1,3.47-27.68v4H415.95v-4a112.15,112.15,0,0,1,3.47,27.68C419.41,137.43,343,198.93,248.81,198.93Z" transform="translate(3.27 -0.46)"/>
        <path class="cls-39" d="M248.81,195.61c-92,0-166.49-60-166.49-134a109.44,109.44,0,0,1,3.38-27v3.28H411.91V34.56a109.44,109.44,0,0,1,3.38,27C415.3,135.6,340.76,195.61,248.81,195.61Z" transform="translate(3.27 -0.46)"/>
        <path class="cls-40" d="M248.81,192.29c-89.68,0-162.37-58.53-162.37-130.72a106.73,106.73,0,0,1,3.3-26.35v2.61H407.88V35.23a106.73,106.73,0,0,1,3.3,26.35C411.18,133.77,338.48,192.29,248.81,192.29Z" transform="translate(3.27 -0.46)"/>
        <path class="cls-41" d="M248.81,189c-87.4,0-158.25-57-158.25-127.41a104,104,0,0,1,3.22-25.68v1.95H403.84V35.89a104,104,0,0,1,3.22,25.68C407.06,131.94,336.21,189,248.81,189Z" transform="translate(3.27 -0.46)"/>
        <path class="cls-42" d="M248.81,185.66c-85.13,0-154.13-55.56-154.13-124.09a101.31,101.31,0,0,1,3.13-25v1.28h302V36.56a101.32,101.32,0,0,1,3.13,25C402.94,130.11,333.93,185.66,248.81,185.66Z" transform="translate(3.27 -0.46)"/>
        <path class="cls-43" d="M248.81,182.35c-82.85,0-150-54.07-150-120.78a98.62,98.62,0,0,1,3-24.34v.61H395.77v-.61a98.61,98.61,0,0,1,3,24.34C398.82,128.27,331.66,182.35,248.81,182.35Z" transform="translate(3.27 -0.46)"/>
        <path class="cls-44" d="M248.81,179c-80.58,0-145.9-52.59-145.9-117.46a95.9,95.9,0,0,1,3-23.67,98.73,98.73,0,0,1,3.59-11.26v11.2H388.14V26.64a98.69,98.69,0,0,1,3.6,11.26,95.9,95.9,0,0,1,3,23.67C394.7,126.44,329.38,179,248.81,179Z" transform="translate(3.27 -0.46)"/>
        <path class="cls-45" d="M248.81,175.72C170.5,175.72,107,124.61,107,61.57a93.2,93.2,0,0,1,2.88-23,95.94,95.94,0,0,1,3.49-10.94V37.84H384.21V27.63a95.85,95.85,0,0,1,3.49,10.94,93.2,93.2,0,0,1,2.88,23C390.58,124.61,327.11,175.72,248.81,175.72Z" transform="translate(3.27 -0.46)"/>
        <path class="cls-46" d="M248.81,172.4c-76,0-137.66-49.62-137.66-110.83a90.48,90.48,0,0,1,2.8-22.34,93.13,93.13,0,0,1,3.39-10.62v9.23H380.28V28.61a93.13,93.13,0,0,1,3.39,10.62,90.49,90.49,0,0,1,2.8,22.34C386.47,122.78,324.83,172.4,248.81,172.4Z" transform="translate(3.27 -0.46)"/>
      </g>
      <path d="M443.58,212.57l13.13-54.1L411.44,47.94,294,61.14,29,142.78,68.65,258.07,241,257l64.14-10.45,130.78-26.85A9.47,9.47,0,0,0,443.58,212.57Z" transform="translate(3.27 -0.46)"/>
      <path class="cls-44" d="M88.54,273.11a5,5,0,0,1-.81.07,4.93,4.93,0,0,1-4.89-3.07S70.61,244,71.11,245.49l9.46,27.72a5,5,0,0,0,4.76,3.4,5,5,0,0,0,.81-.07l145-23.67C233.13,252.55,88.54,273.11,88.54,273.11Z" transform="translate(3.27 -0.46)"/>
      <path class="cls-47" d="M26.58,106.26c-1.67-5.11.31-6.28,4.25-6.72l211.78-27.1L26.45,96.8a5.09,5.09,0,0,0-4.25,6.72L69.47,240.29C70.16,242.3,39,144,26.58,106.26Z" transform="translate(3.27 -0.46)"/>
      <polygon points="448.22 188.5 456.62 184.8 464.84 150.92 431.28 45.62 403.24 48.77 448.22 188.5"/>
      <polygon class="cls-4" points="6.27 237.19 506.27 266.37 408.17 24.93 6.27 140.91 6.27 237.19"/>
      <path class="cls-48" d="M445.4,218l14.12-58.21L413.95,47.66,272.73,63.53,26.17,134.68,62.88,241.14,265.27,253l172.44-27.8A9.47,9.47,0,0,0,445.4,218Z" transform="translate(3.27 -0.46)"/>
      <path class="cls-47" d="M478.21,48.12a5,5,0,0,0-3.94-1.93,5.65,5.65,0,0,0-.59,0L418,53.11c-1.53.17,52.84-2.92,52.84-2.92,4.24-.27,5.47,1.37,4.51,5.33,0,0-17.35,83.08-16.87,81.1l20.63-84.21A5,5,0,0,0,478.21,48.12Z" transform="translate(3.27 -0.46)"/>
      <polygon class="cls-49" points="408.17 24.93 11.19 144.65 6.82 236.55 6.27 140.91 408.17 24.93"/>
      <polygon class="cls-50" points="408.17 24.93 500.43 262.72 506.27 266.37 408.17 24.93"/>
      <g>
        <g>
          <path class="cls-17" d="M57.8,189.55a17,17,0,0,1-1.29,6.71,16,16,0,0,1-3.64,5.36A18.8,18.8,0,0,1,46,205.85a30.41,30.41,0,0,1-10,1.43l-7.49,0,0,20.28-7.49,0-.11-54.41,15.28,0a38.35,38.35,0,0,1,8.59.8A19.73,19.73,0,0,1,51,176.51a14.91,14.91,0,0,1,5,5.18A15.8,15.8,0,0,1,57.8,189.55Zm-7.79.2a11,11,0,0,0-1-4.9,8.32,8.32,0,0,0-3.11-3.39,12.77,12.77,0,0,0-4.14-1.62,29,29,0,0,0-5.88-.48l-7.41,0,0,21.74h6.32a28.38,28.38,0,0,0,7.37-.8,10.3,10.3,0,0,0,7.12-6.21A12.15,12.15,0,0,0,50,189.75Z" transform="translate(3.27 -0.46)"/>
          <path class="cls-17" d="M108.47,179.25a24.58,24.58,0,0,1,5.3,8.94,36.65,36.65,0,0,1,1.86,12,36.13,36.13,0,0,1-1.85,12,24.49,24.49,0,0,1-5.22,8.87,22.47,22.47,0,0,1-8.21,5.57,29.47,29.47,0,0,1-10.83,1.89,29.42,29.42,0,0,1-10.8-1.88,22.36,22.36,0,0,1-8.28-5.5,24.53,24.53,0,0,1-5.26-8.87,40.21,40.21,0,0,1-.07-24,25.16,25.16,0,0,1,5.28-9.05,21.75,21.75,0,0,1,8.25-5.5,29.7,29.7,0,0,1,10.76-1.92,29.21,29.21,0,0,1,10.88,1.89A22.7,22.7,0,0,1,108.47,179.25Zm-.64,21q0-10.6-4.95-16.34t-13.44-5.73q-8.59,0-13.47,5.79T71.11,200.3q0,10.71,5,16.38t13.4,5.65q8.4,0,13.36-5.71T107.83,200.22Z" transform="translate(3.27 -0.46)"/>
          <path class="cls-17" d="M173,227.28l-9.72,0L144.39,205.7l-10.55,0,0,21.63-7.49,0L126.29,173l15.77,0a47.34,47.34,0,0,1,8.51.62,18.31,18.31,0,0,1,6.13,2.27,14,14,0,0,1,4.79,4.68,13.63,13.63,0,0,1,1.74,7.18,15.63,15.63,0,0,1-3,9.85,18.57,18.57,0,0,1-8.42,6ZM155.4,188.21a9.66,9.66,0,0,0-.86-4.15,7.3,7.3,0,0,0-2.83-3,10.54,10.54,0,0,0-3.86-1.47,28.64,28.64,0,0,0-5.26-.41l-8.81,0,0,20.54,7.56,0a28.24,28.24,0,0,0,6.2-.61,10,10,0,0,0,4.5-2.26,9.58,9.58,0,0,0,2.51-3.53A13.49,13.49,0,0,0,155.4,188.21Z" transform="translate(3.27 -0.46)"/>
          <path class="cls-17" d="M216.9,179.21l-20.12,0,.1,48-7.49,0-.1-48-20.12,0v-6.43l47.73-.1Z" transform="translate(3.27 -0.46)"/>
          <path class="cls-17" d="M263.39,178.93a24.58,24.58,0,0,1,5.3,8.94,36.65,36.65,0,0,1,1.86,12,36.13,36.13,0,0,1-1.85,12,24.49,24.49,0,0,1-5.22,8.87,22.47,22.47,0,0,1-8.21,5.57,32,32,0,0,1-21.64,0,22.36,22.36,0,0,1-8.28-5.5,24.53,24.53,0,0,1-5.26-8.87,40.21,40.21,0,0,1-.07-24A25.16,25.16,0,0,1,225.3,179a21.75,21.75,0,0,1,8.25-5.5,29.7,29.7,0,0,1,10.76-1.92,29.21,29.21,0,0,1,10.88,1.89A22.7,22.7,0,0,1,263.39,178.93Zm-.64,21q0-10.6-4.95-16.34t-13.44-5.73q-8.59,0-13.47,5.79T226,200q0,10.71,5,16.38t13.4,5.65q8.4,0,13.36-5.71T262.75,199.9Z" transform="translate(3.27 -0.46)"/>
          <path class="cls-17" d="M317.19,179l-28.48.06,0,15.35,24.47-.05v6.43l-24.47.05.05,26.2-7.49,0-.11-54.41,36-.07Z" transform="translate(3.27 -0.46)"/>
          <path class="cls-17" d="M366.56,178.72a24.64,24.64,0,0,1,5.29,8.94,36.65,36.65,0,0,1,1.86,12,36.09,36.09,0,0,1-1.85,12,24.44,24.44,0,0,1-5.22,8.87,22.47,22.47,0,0,1-8.22,5.57,32,32,0,0,1-21.63,0,22.36,22.36,0,0,1-8.28-5.5,24.6,24.6,0,0,1-5.26-8.87,40.22,40.22,0,0,1-.07-24,25.16,25.16,0,0,1,5.28-9.05,21.73,21.73,0,0,1,8.25-5.5,29.68,29.68,0,0,1,10.76-1.92,29.2,29.2,0,0,1,10.88,1.89A22.72,22.72,0,0,1,366.56,178.72Zm-.64,21q0-10.6-4.95-16.34t-13.44-5.73q-8.58,0-13.47,5.79t-4.86,16.36q0,10.71,5,16.38t13.4,5.65q8.4,0,13.36-5.71T365.92,199.69Z" transform="translate(3.27 -0.46)"/>
          <path class="cls-17" d="M420.11,226.77l-35.63.07-.11-54.41,7.49,0,.1,48,28.14-.06Z" transform="translate(3.27 -0.46)"/>
          <path class="cls-17" d="M446.29,226.71l-22.24,0V221.2l7.38,0-.09-43.3-7.38,0v-5.55l22.24,0v5.55l-7.38,0,.09,43.3,7.38,0Z" transform="translate(3.27 -0.46)"/>
          <path class="cls-17" d="M499.76,178.44a24.64,24.64,0,0,1,5.29,8.94,36.65,36.65,0,0,1,1.86,12,36.09,36.09,0,0,1-1.85,12,24.44,24.44,0,0,1-5.22,8.87,22.47,22.47,0,0,1-8.22,5.57,32,32,0,0,1-21.63,0,22.36,22.36,0,0,1-8.28-5.5,24.6,24.6,0,0,1-5.26-8.87,40.22,40.22,0,0,1-.07-24,25.16,25.16,0,0,1,5.28-9.05,21.73,21.73,0,0,1,8.25-5.5,29.68,29.68,0,0,1,10.76-1.92A29.2,29.2,0,0,1,491.56,173,22.72,22.72,0,0,1,499.76,178.44Zm-.64,21q0-10.6-4.95-16.34t-13.44-5.73q-8.58,0-13.47,5.79t-4.86,16.36q0,10.71,5,16.38t13.4,5.65q8.4,0,13.36-5.71T499.12,199.41Z" transform="translate(3.27 -0.46)"/>
        </g>
        <g>
          <path class="cls-49" d="M54.73,186.49a17,17,0,0,1-1.29,6.71,16,16,0,0,1-3.64,5.36,18.8,18.8,0,0,1-6.88,4.23,30.41,30.41,0,0,1-10,1.43l-7.49,0,0,20.28-7.49,0-.11-54.41,15.28,0a38.35,38.35,0,0,1,8.59.8A19.73,19.73,0,0,1,48,173.45a14.91,14.91,0,0,1,5,5.18A15.8,15.8,0,0,1,54.73,186.49Zm-7.79.2a11,11,0,0,0-1-4.9,8.32,8.32,0,0,0-3.11-3.39,12.77,12.77,0,0,0-4.14-1.62,29,29,0,0,0-5.88-.48l-7.41,0,0,21.74h6.32a28.38,28.38,0,0,0,7.37-.8A10.3,10.3,0,0,0,46.21,191,12.15,12.15,0,0,0,46.94,186.68Z" transform="translate(3.27 -0.46)"/>
          <path class="cls-49" d="M105.4,176.19a24.58,24.58,0,0,1,5.3,8.94,36.65,36.65,0,0,1,1.86,12,36.13,36.13,0,0,1-1.85,12,24.49,24.49,0,0,1-5.22,8.87,22.47,22.47,0,0,1-8.21,5.57,29.47,29.47,0,0,1-10.83,1.89,29.42,29.42,0,0,1-10.8-1.88,22.36,22.36,0,0,1-8.28-5.5,24.53,24.53,0,0,1-5.26-8.87,40.21,40.21,0,0,1-.07-24,25.16,25.16,0,0,1,5.28-9.05,21.75,21.75,0,0,1,8.25-5.5,29.7,29.7,0,0,1,10.76-1.92,29.21,29.21,0,0,1,10.88,1.89A22.7,22.7,0,0,1,105.4,176.19Zm-.64,21q0-10.6-4.95-16.34t-13.44-5.73q-8.59,0-13.47,5.79T68,197.24q0,10.71,5,16.38t13.4,5.65q8.4,0,13.36-5.71T104.76,197.16Z" transform="translate(3.27 -0.46)"/>
          <path class="cls-49" d="M169.92,224.21l-9.72,0-18.88-21.59-10.55,0,0,21.63-7.49,0-.11-54.41,15.77,0a47.34,47.34,0,0,1,8.51.62,18.31,18.31,0,0,1,6.13,2.27,14,14,0,0,1,4.79,4.68,13.63,13.63,0,0,1,1.74,7.18,15.63,15.63,0,0,1-3,9.85,18.57,18.57,0,0,1-8.42,6Zm-17.59-39.06a9.66,9.66,0,0,0-.86-4.15,7.3,7.3,0,0,0-2.83-3,10.54,10.54,0,0,0-3.86-1.47,28.64,28.64,0,0,0-5.26-.41l-8.81,0,0,20.54,7.56,0a28.24,28.24,0,0,0,6.2-.61,10,10,0,0,0,4.5-2.26,9.58,9.58,0,0,0,2.51-3.53A13.49,13.49,0,0,0,152.33,185.15Z" transform="translate(3.27 -0.46)"/>
          <path class="cls-49" d="M213.82,176.15l-20.12,0,.1,48-7.49,0-.1-48-20.12,0v-6.43l47.73-.1Z" transform="translate(3.27 -0.46)"/>
          <path class="cls-49" d="M260.32,175.87a24.58,24.58,0,0,1,5.3,8.94,36.65,36.65,0,0,1,1.86,12,36.13,36.13,0,0,1-1.85,12,24.49,24.49,0,0,1-5.22,8.87,22.47,22.47,0,0,1-8.21,5.57,32,32,0,0,1-21.64,0,22.36,22.36,0,0,1-8.28-5.5A24.53,24.53,0,0,1,217,209a40.21,40.21,0,0,1-.07-24,25.16,25.16,0,0,1,5.28-9.05,21.75,21.75,0,0,1,8.25-5.5,29.7,29.7,0,0,1,10.76-1.92,29.21,29.21,0,0,1,10.88,1.89A22.7,22.7,0,0,1,260.32,175.87Zm-.64,21q0-10.6-4.95-16.34t-13.44-5.73q-8.59,0-13.47,5.79T223,196.92q0,10.71,5,16.38t13.4,5.65q8.4,0,13.36-5.71T259.68,196.84Z" transform="translate(3.27 -0.46)"/>
          <path class="cls-49" d="M314.11,175.94l-28.48.06,0,15.35,24.47-.05v6.43l-24.47.05.05,26.2-7.49,0-.11-54.41,36-.07Z" transform="translate(3.27 -0.46)"/>
          <path class="cls-49" d="M363.48,175.65a24.64,24.64,0,0,1,5.29,8.94,36.65,36.65,0,0,1,1.86,12,36.09,36.09,0,0,1-1.85,12,24.44,24.44,0,0,1-5.22,8.87,22.47,22.47,0,0,1-8.22,5.57,32,32,0,0,1-21.63,0,22.36,22.36,0,0,1-8.28-5.5,24.6,24.6,0,0,1-5.26-8.87,40.22,40.22,0,0,1-.07-24,25.16,25.16,0,0,1,5.28-9.05,21.73,21.73,0,0,1,8.25-5.5,29.68,29.68,0,0,1,10.76-1.92,29.2,29.2,0,0,1,10.88,1.89A22.72,22.72,0,0,1,363.48,175.65Zm-.64,21q0-10.6-4.95-16.34t-13.44-5.73q-8.58,0-13.47,5.79t-4.86,16.36q0,10.71,5,16.38t13.4,5.65q8.4,0,13.36-5.71T362.84,196.63Z" transform="translate(3.27 -0.46)"/>
          <path class="cls-49" d="M417,223.7l-35.63.07-.11-54.41,7.49,0,.1,48,28.14-.06Z" transform="translate(3.27 -0.46)"/>
          <path class="cls-49" d="M443.22,223.65l-22.24,0v-5.55l7.38,0-.09-43.3-7.38,0v-5.55l22.24,0v5.55l-7.38,0,.09,43.3,7.38,0Z" transform="translate(3.27 -0.46)"/>
          <path class="cls-49" d="M496.69,175.38a24.64,24.64,0,0,1,5.29,8.94,36.65,36.65,0,0,1,1.86,12,36.09,36.09,0,0,1-1.85,12,24.44,24.44,0,0,1-5.22,8.87,22.47,22.47,0,0,1-8.22,5.57,32,32,0,0,1-21.63,0,22.36,22.36,0,0,1-8.28-5.5,24.6,24.6,0,0,1-5.26-8.87,40.22,40.22,0,0,1-.07-24,25.16,25.16,0,0,1,5.28-9.05,21.73,21.73,0,0,1,8.25-5.5A29.68,29.68,0,0,1,477.61,168a29.2,29.2,0,0,1,10.88,1.89A22.72,22.72,0,0,1,496.69,175.38Zm-.64,21q0-10.6-4.95-16.34t-13.44-5.73q-8.58,0-13.47,5.79t-4.86,16.36q0,10.71,5,16.38t13.4,5.65q8.4,0,13.36-5.71T496,196.35Z" transform="translate(3.27 -0.46)"/>
        </g>
      </g>
      <g>
        <path class="cls-17" d="M285.29,67.45c-6.17-6.56-14.84-9.87-25.73-9.87s-19.6,3.31-25.73,9.87-9.34,15.69-9.34,27.11,3.14,20.41,9.34,27,14.8,9.91,25.73,9.91,19.63-3.35,25.8-9.91,9.31-15.69,9.31-27S291.53,74,285.29,67.45Zm-7.61,38.39a24.24,24.24,0,0,1-4.3,8.64,16.5,16.5,0,0,1-6.27,4.93,18.29,18.29,0,0,1-7.51,1.59,18.8,18.8,0,0,1-7.47-1.55,16.65,16.65,0,0,1-6.27-4.86,24.07,24.07,0,0,1-4.16-8.18,40.22,40.22,0,0,1-1.55-11.84,40.8,40.8,0,0,1,1.59-11.91A22.93,22.93,0,0,1,246,74.29a17.1,17.1,0,0,1,6.34-4.76,19,19,0,0,1,14.59,0,16.43,16.43,0,0,1,6.34,4.86,24.07,24.07,0,0,1,4.19,8.18,39.33,39.33,0,0,1,1.59,11.91A41.6,41.6,0,0,1,277.68,105.84Z" transform="translate(3.27 -0.46)"/>
        <path class="cls-17" d="M347.68,77.42v38.91l-.78.49a21.85,21.85,0,0,1-5.64,2.71c-4.9,1.55-8.85,1.06-11.31-.07a7.15,7.15,0,0,1-3.6-3.52,14.27,14.27,0,0,1-1.41-5.29c-.18-1.94-.28-4.37-.28-7.23v-26H310.88v34.72c0,6.45,1.45,11.39,4.34,14.59s7,4.76,12.44,4.76a19.37,19.37,0,0,0,8.71-1.8,50,50,0,0,0,8.46-5.57l2.86-2.26v8.07H361.5V77.42Z" transform="translate(3.27 -0.46)"/>
        <path class="cls-17" d="M416.56,77.25c-.74,0-1.37,0-2,0a19.41,19.41,0,0,0-6.92,1.18A49.2,49.2,0,0,0,397.05,84l-1.89,1.08V77.42H381.35v52.52h13.82v-37l1.13-.42a33.94,33.94,0,0,1,6.42-1.76,39.27,39.27,0,0,1,6.8-.53c1.13,0,2.54.07,4.23.18a25.07,25.07,0,0,1,3.17.46V77.28C416.81,77.28,416.66,77.25,416.56,77.25Z" transform="translate(3.27 -0.46)"/>
      </g>
      <g>
        <path class="cls-49" d="M281.77,63.92c-6.17-6.56-14.84-9.87-25.73-9.87s-19.6,3.31-25.73,9.87S221,79.61,221,91s3.14,20.41,9.34,27S245.11,128,256,128s19.63-3.35,25.8-9.91,9.31-15.69,9.31-27S288,70.48,281.77,63.92Zm-7.61,38.39a24.24,24.24,0,0,1-4.3,8.64,16.5,16.5,0,0,1-6.27,4.93,18.29,18.29,0,0,1-7.51,1.59,18.8,18.8,0,0,1-7.47-1.55,16.65,16.65,0,0,1-6.27-4.86,24.07,24.07,0,0,1-4.16-8.18A40.22,40.22,0,0,1,236.61,91a40.8,40.8,0,0,1,1.59-11.91,22.93,22.93,0,0,1,4.27-8.35A17.1,17.1,0,0,1,248.81,66a19,19,0,0,1,14.59,0,16.43,16.43,0,0,1,6.34,4.86,24.07,24.07,0,0,1,4.19,8.18A39.33,39.33,0,0,1,275.53,91,41.6,41.6,0,0,1,274.15,102.31Z" transform="translate(3.27 -0.46)"/>
        <path class="cls-49" d="M344.16,73.9v38.91l-.78.49a21.85,21.85,0,0,1-5.64,2.71c-4.9,1.55-8.85,1.06-11.31-.07a7.15,7.15,0,0,1-3.6-3.52,14.27,14.27,0,0,1-1.41-5.29c-.18-1.94-.28-4.37-.28-7.23v-26H307.36v34.72c0,6.45,1.45,11.39,4.34,14.59s7,4.76,12.44,4.76a19.37,19.37,0,0,0,8.71-1.8,50,50,0,0,0,8.46-5.57l2.86-2.26v8.07H358V73.9Z" transform="translate(3.27 -0.46)"/>
        <path class="cls-49" d="M413,73.72c-.74,0-1.37,0-2,0a19.41,19.41,0,0,0-6.92,1.18,49.2,49.2,0,0,0-10.62,5.64l-1.89,1.08V73.9H377.82v52.52h13.82v-37l1.13-.42a33.94,33.94,0,0,1,6.42-1.76,39.27,39.27,0,0,1,6.8-.53c1.13,0,2.54.07,4.23.18a25.07,25.07,0,0,1,3.17.46V73.76C413.28,73.76,413.14,73.72,413,73.72Z" transform="translate(3.27 -0.46)"/>
      </g>
    </g>
  </g>
</svg>
